<?xml version="1.0" encoding="UTF-8" standalone="no"?>
<svg
   xmlns:dc="http://purl.org/dc/elements/1.1/"
   xmlns:cc="http://creativecommons.org/ns#"
   xmlns:rdf="http://www.w3.org/1999/02/22-rdf-syntax-ns#"
   xmlns:svg="http://www.w3.org/2000/svg"
   xmlns="http://www.w3.org/2000/svg"
   xmlns:sodipodi="http://sodipodi.sourceforge.net/DTD/sodipodi-0.dtd"
   xmlns:inkscape="http://www.inkscape.org/namespaces/inkscape"
   width="38.62228mm"
   height="40.28006mm"
   viewBox="0 0 38.62228 40.28006"
   version="1.1"
   id="svg10021"
   inkscape:version="1.0.2 (1.0.2+r75+1)"
   sodipodi:docname="cut_e.svg">
  <defs
     id="defs10015" />
  <sodipodi:namedview
     id="base"
     pagecolor="#ffffff"
     bordercolor="#666666"
     borderopacity="1.0"
     inkscape:pageopacity="0.0"
     inkscape:pageshadow="2"
     inkscape:zoom="1.8768357"
     inkscape:cx="32.828894"
     inkscape:cy="49.467371"
     inkscape:document-units="mm"
     inkscape:current-layer="layer1"
     inkscape:document-rotation="0"
     showgrid="false"
     inkscape:snap-bbox="true"
     inkscape:bbox-paths="true"
     inkscape:bbox-nodes="true"
     inkscape:snap-bbox-edge-midpoints="true"
     inkscape:snap-bbox-midpoints="true"
     inkscape:snap-intersection-paths="true"
     inkscape:object-paths="true"
     inkscape:snap-smooth-nodes="true"
     inkscape:snap-midpoints="true"
     inkscape:snap-object-midpoints="true"
     inkscape:snap-text-baseline="true"
     inkscape:snap-center="true"
     inkscape:snap-page="true"
     fit-margin-top="0"
     fit-margin-left="0"
     fit-margin-right="0"
     fit-margin-bottom="0"
     inkscape:window-width="1280"
     inkscape:window-height="1385"
     inkscape:window-x="0"
     inkscape:window-y="27"
     inkscape:window-maximized="0" />
  <metadata
     id="metadata10018">
    <rdf:RDF>
      <cc:Work
         rdf:about="">
        <dc:format>image/svg+xml</dc:format>
        <dc:type
           rdf:resource="http://purl.org/dc/dcmitype/StillImage" />
        <dc:title></dc:title>
      </cc:Work>
    </rdf:RDF>
  </metadata>
  <g
     inkscape:label="Layer 1"
     inkscape:groupmode="layer"
     id="layer1"
     transform="translate(-75.429131,-116.1628)">
    <path
       style="fill:#f8a626;fill-opacity:1;fill-rule:nonzero;stroke:none;stroke-width:0.352778"
       d="m 94.417121,116.1658 c -0.051,-0.001 -7.95404,-0.003 -18.98799,-0.003 v 40.28006 c 11.03533,-0.001 18.93976,-0.001 18.99212,-0.003 10.887879,-0.27286 19.630159,-9.18463 19.630159,-20.13728 0,-10.95402 -8.74503,-19.86718 -19.634289,-20.13727"
       id="path8605" />
    <g
       id="g10605"
       transform="translate(1.1e-4)">
      <path
         style="fill:#ffffff;fill-opacity:1;fill-rule:nonzero;stroke:none;stroke-width:0.352778"
         d="m 80.213681,145.03846 c -0.52917,0.53881 -1.1796,0.9412 -1.89756,1.17271 -0.87092,0.24253 -1.77216,0.35415 -2.67477,0.32935 -0.0717,0.003 -0.14194,-0.005 -0.21222,-0.007 v 6.03443 c 0.10611,0 0.21084,0.011 0.31695,0.008 1.97611,0.003 3.93843,-0.35002 5.79052,-1.03904 1.85483,-0.68489 3.4947,-1.84795 4.75423,-3.37206 0.67661,-0.84199 1.25263,-1.76114 1.71565,-2.73817 0.49334,-0.94533 0.80891,-1.97472 0.93156,-3.03444 h -7.2223 c -0.25769,0.99908 -0.77584,1.91272 -1.50206,2.64584"
         id="path8607" />
      <path
         style="fill:#ffffff;fill-opacity:1;fill-rule:nonzero;stroke:none;stroke-width:0.352778"
         d="m 75.518701,125.7349 c 0.95498,-0.0234 1.90721,0.13918 2.80018,0.47955 0.74138,0.2949 1.40835,0.75104 1.95405,1.33394 1.24162,1.36426 1.88378,3.19016 1.92512,5.47495 h -6.76892 v 5.45428 h 14.29301 l -0.007,-2.12769 v -0.38861 c -0.0138,-1.75424 -0.17225,-3.50297 -0.47266,-5.23103 -0.36932,-1.88654 -1.12724,-3.67523 -2.22691,-5.25171 -1.20165,-1.88929 -2.9118,-3.401 -4.93338,-4.36149 -2.03674,-0.94396 -4.25676,-1.42213 -6.50159,-1.40146 -0.051,0 -0.10059,0.005 -0.15158,0.005 v 6.01651 c 0.0303,0 0.0593,-0.004 0.0896,-0.003"
         id="path8609" />
    </g>
  </g>
</svg>
