<?xml version="1.0" encoding="UTF-8"?>
<svg width="27px" height="59px" viewBox="0 0 27 59" version="1.1" xmlns="http://www.w3.org/2000/svg" xmlns:xlink="http://www.w3.org/1999/xlink">
    <!-- Generator: Sketch 63.1 (92452) - https://sketch.com -->
    <title>Group 8</title>
    <desc>Created with Sketch.</desc>
    <defs>
        <polygon id="path-1" points="0 0.132265672 26.8359 0.132265672 26.8359 33.3422209 0 33.3422209"></polygon>
        <polygon id="path-3" points="0 0.662473134 25.2148 0.662473134 25.2148 18.629294 0 18.629294"></polygon>
    </defs>
    <g id="Partners" stroke="none" stroke-width="1" fill="none" fill-rule="evenodd">
        <g transform="translate(0.000000, -50.000000)" id="Group-9">
            <g>
                <g id="Group-8" transform="translate(0.000000, 50.000000)">
                    <g id="Group-4">
                        <mask id="mask-2" fill="white">
                            <use xlink:href="#path-1"></use>
                        </mask>
                        <g id="Clip-3"></g>
                        <path d="M25.8379,19.6216388 C25.1719,16.4541313 23.6349,13.3403403 21.2269,10.2776239 C18.5659,6.7913403 15.1599,4.20854925 11.0009,2.53365373 C7.5639,1.15375821 3.8919,0.372668657 -0.0001,0.132265672 L-0.0001,10.882594 C1.1639,11.0155642 2.2549,11.2233851 3.2109,11.5571313 C4.8269,12.1295194 6.1779,12.9123701 7.2589,13.9109672 C9.8369,16.3308478 11.1659,19.5696836 11.2539,23.6230716 L-0.0001,23.6230716 L-0.0001,33.3422209 L26.7129,33.3422209 L26.8359,33.3422209 L26.8359,29.6058478 C26.8359,26.1195642 26.5019,22.7917881 25.8379,19.6216388" id="Fill-2" fill="#FFFFFF" mask="url(#mask-2)"></path>
                    </g>
                    <g id="Group-7" transform="translate(0.000000, 39.626866)">
                        <mask id="mask-4" fill="white">
                            <use xlink:href="#path-3"></use>
                        </mask>
                        <g id="Clip-6"></g>
                        <path d="M7.1368,5.35693582 C5.9718,6.35729403 4.6648,7.05032388 3.2108,7.44042836 C2.3088,7.68259254 1.2008,7.82260746 -0.0002,7.91683134 L-0.0002,18.629294 C3.4078,18.4611 6.7038,17.8948761 9.8788,16.8918761 C13.6988,15.683697 16.9898,13.6882642 19.7308,10.9099806 C20.9788,9.63223433 22.1618,8.01017463 23.2818,6.05172687 C24.4028,4.0932791 25.0488,2.29774179 25.2148,0.662473134 L10.2548,0.662473134 C9.6728,2.50996567 8.6328,4.07566716 7.1368,5.35693582" id="Fill-5" fill="#FFFFFF" mask="url(#mask-4)"></path>
                    </g>
                </g>
            </g>
        </g>
    </g>
</svg>