<svg xmlns="http://www.w3.org/2000/svg" xmlns:xlink="http://www.w3.org/1999/xlink" width="1354.185" height="609.74" viewBox="0 0 1354.185 609.74">
  <defs>
    <clipPath id="clip-path">
      <rect id="Rectangle_14" data-name="Rectangle 14" width="1354.185" height="609.74" fill="none"/>
    </clipPath>
  </defs>
  <g id="Group_14" data-name="Group 14" clip-path="url(#clip-path)">
    <g id="Group_13" data-name="Group 13" transform="translate(-452.477 -367.368)">
      <g id="Group_12" data-name="Group 12" transform="translate(0 11)">
        <rect id="Rectangle_2" data-name="Rectangle 2" width="310.19" height="1918.381" transform="translate(3101.899 0.921)" fill="#00467d"/>
        <rect id="Rectangle_3" data-name="Rectangle 3" width="310.19" height="1919.3" transform="translate(2791.709 0.002)" fill="#1d274d"/>
        <path id="Path_98" data-name="Path 98" d="M0,0H310.19V1919.3H0Z" transform="translate(310.19 0.002)" fill="#199ddd"/>
        <path id="Path_99" data-name="Path 99" d="M-1.32,0H308.87V1919.3H-1.32L-4.479,905.462Z" transform="translate(931.89 0.002)" fill="#009ddd"/>
        <rect id="Rectangle_6" data-name="Rectangle 6" width="310.19" height="1919.3" transform="translate(1240.76 0.002)" fill="#009ede"/>
        <rect id="Rectangle_7" data-name="Rectangle 7" width="310.19" height="1919.3" transform="translate(1550.95 0.002)" fill="#380339"/>
        <rect id="Rectangle_8" data-name="Rectangle 8" width="310.19" height="1919.3" transform="translate(1861.14 0.002)" fill="#009ede"/>
        <rect id="Rectangle_9" data-name="Rectangle 9" width="310.19" height="1919.3" transform="translate(2481.52 0.002)" fill="#009ede"/>
        <rect id="Rectangle_10" data-name="Rectangle 10" width="310.19" height="1919.3" transform="translate(0.001 0.002)" fill="#009ede"/>
        <path id="Path_1" data-name="Path 1" d="M548.233,1865.1h310.19V1373.039c0-171.313-138.876-310.19-310.19-310.19h0c-171.313,0-310.19,138.877-310.19,310.19V1865.1Z" transform="translate(382.337 54.203)" fill="#1d274d"/>
        <rect id="Rectangle_11" data-name="Rectangle 11" width="310.19" height="499.844" transform="translate(2171.329 0.002)" fill="#00467d"/>
        <path id="Path_2" data-name="Path 2" d="M238.043-164.273V975.966c0,77.826,69.438,140.916,155.1,140.916h0c85.657,0,155.1-63.09,155.1-140.916V-164.273c0-77.826-69.439-140.916-155.1-140.916h0C307.481-305.189,238.043-242.1,238.043-164.273Z" transform="translate(382.337 457.291)" fill="#009ddd"/>
        <path id="Path_3" data-name="Path 3" d="M988-520.826h310.19V562.635h-163A147.187,147.187,0,0,1,988,415.445V168.09A147.187,147.187,0,0,0,840.809,20.9H824.994A147.186,147.186,0,0,1,677.809-126.28V-520.826Z" transform="translate(407.856 520.828)" fill="#380339"/>
        <g id="Group_1" data-name="Group 1" transform="translate(1813.95 343.139)">
          <path id="Path_4" data-name="Path 4" d="M1557.34-550.438V237.454h0c171.313,0,310.19-154.66,310.19-345.443v-423.3Z" transform="translate(-1557.34 524.826)" fill="#129bd7"/>
        </g>
        <g id="Group_2" data-name="Group 2" transform="translate(312.307 0.002)">
          <path id="Path_5" data-name="Path 5" d="M-201.721-520.826v1136.4h0c171.313,0,310.189-138.877,310.189-310.19v-826.21Z" transform="translate(201.721 520.826)" fill="#199ddd"/>
        </g>
        <g id="Group_3" data-name="Group 3" transform="translate(1550.946 1238.409)">
          <path id="Path_6" data-name="Path 6" d="M1867.525,1915.793h0V1234.9h0c-171.313,0-310.19,138.877-310.19,310.19V1915.8Z" transform="translate(-1557.335 -1234.9)" fill="#235ead"/>
        </g>
        <path id="Path_7" data-name="Path 7" d="M-331.3,2098.856V2011.29A155.094,155.094,0,0,0-486.4,1856.2a155.093,155.093,0,0,0-155.087,155.087v87.573Z" transform="translate(641.488 -179.554)" fill="#1d274d"/>
        <path id="Path_8" data-name="Path 8" d="M1117.575-520.826v87.566a155.1,155.1,0,0,0,155.1,155.1,155.093,155.093,0,0,0,155.088-155.094v-87.572Z" transform="translate(123.185 520.828)" fill="#009ede"/>
        <path id="Path_9" data-name="Path 9" d="M2747.06,1546.407H2436.87V-18.756h203.791a106.4,106.4,0,0,1,106.4,106.4Z" transform="translate(-265.541 372.895)" fill="#1d274d"/>
        <path id="Path_10" data-name="Path 10" d="M3186.825,1654.189H2876.636V347.043H3080.2c58.888,0,106.627,47.89,106.627,106.965Z" transform="translate(-395.117 265.113)" fill="#00467d"/>
        <path id="Path_11" data-name="Path 11" d="M2307.293,1818.073V1009.645a106.4,106.4,0,0,0-106.4-106.4H2103.5a106.4,106.4,0,0,0-106.4,106.409v808.418Z" transform="translate(-135.964 101.23)" fill="#00467d"/>
        <path id="Path_12" data-name="Path 12" d="M3911.262,1588.444h0c-85.657,0-155.095,69.538-155.095,155.319v276.82h310.19V1743.76C4066.357,1657.982,3996.918,1588.444,3911.262,1588.444Z" transform="translate(-654.268 -100.662)" fill="#1d274d"/>
        <path id="Path_13" data-name="Path 13" d="M2307.295,1987.72V1479.01h0c-171.313,0-310.19,138.876-310.19,310.19v198.52Z" transform="translate(-135.965 -68.418)" fill="#009ede"/>
        <path id="Path_14" data-name="Path 14" d="M2591.965,423.638h0a155.094,155.094,0,0,0-155.094,155.094V1676.755H2747.06V578.732A155.094,155.094,0,0,0,2591.965,423.638Z" transform="translate(-265.541 242.545)" fill="#235ead"/>
        <rect id="Rectangle_12" data-name="Rectangle 12" width="310.19" height="715.006" rx="33.028" transform="translate(0 254.653)" fill="#00467d"/>
        <path id="Path_15" data-name="Path 15" d="M-641.488-520.778v385.26a155.1,155.1,0,0,0,155.094,155.1h0a155.1,155.1,0,0,0,155.1-155.1V-520.826Z" transform="translate(641.488 520.828)" fill="#009ede"/>
        <path id="Path_16" data-name="Path 16" d="M-38.718-366.9A147.186,147.186,0,0,1,108.468-219.714v-24.677A155.092,155.092,0,0,0,263.554-89.306,155.1,155.1,0,0,0,418.663-244.415V-520.829h-620.38V-366.9Z" transform="translate(511.912 520.829)" fill="#009ddd"/>
        <path id="Path_17" data-name="Path 17" d="M3756.167-520.826h310.19v508.71H3862.566a106.4,106.4,0,0,1-106.4-106.4Z" transform="translate(-654.268 520.828)" fill="#009ede"/>
        <g id="Group_4" data-name="Group 4" transform="translate(292.501 523.265)">
          <path id="Path_18" data-name="Path 18" d="M2.555,425.464q21.167-26.475,54.437-42.6c13.166-6.4,27.8-10.688,43.5-13.364V221.02C60.3,224.057,23.79,232.3-8.737,246.06q-62.847,26.424-106.649,70.565-57.451,55.9-85.412,134.617-28.028,78.687-28,171.313,0,94.177,30.991,172.117,31.016,78.023,90.019,133.845A379.8,379.8,0,0,0-1.212,996.884q44.79,19.256,101.7,24.119V872.019a126.13,126.13,0,0,1-30.62-10.458,216.415,216.415,0,0,1-49.154-33.068Q-8,802.018-22.362,762.294a244.538,244.538,0,0,1-14.365-83.85H100.489V544.582H-38.246q1.519-38.172,10.58-66.167Q-18.6,450.511,2.555,425.464Z" transform="translate(228.801 -221.02)" fill="#199ddd"/>
        </g>
        <g id="Group_5" data-name="Group 5" transform="translate(2791.707 54.837)">
          <path id="Path_19" data-name="Path 19" d="M3377.7-315.128a96.957,96.957,0,0,0-34.069-26.662,100.768,100.768,0,0,0-27.227-8.365v-92.93c25.154,1.9,48,7.06,68.363,15.672q39.333,16.539,66.747,44.166,35.958,34.99,53.457,84.253,17.544,49.248,17.527,107.22,0,58.943-19.4,107.723-19.411,48.831-56.341,83.77a237.7,237.7,0,0,1-66.7,42.789Q3352.017,54.562,3316.4,57.6V-35.641a78.99,78.99,0,0,0,19.164-6.546,135.218,135.218,0,0,0,30.764-20.7q17.97-16.57,26.961-41.433a153.03,153.03,0,0,0,8.99-52.478H3316.4v-83.781h86.829q-.95-23.892-6.624-41.413a98.47,98.47,0,0,0-18.91-33.136Z" transform="translate(-3316.399 443.085)" fill="#fff"/>
        </g>
        <g id="Group_6" data-name="Group 6" transform="translate(2373.272 1245.764)">
          <path id="Path_20" data-name="Path 20" d="M2799.223,1312.537a50.992,50.992,0,0,1,17.9-14.006,52.937,52.937,0,0,1,14.3-4.393v-48.81a113.752,113.752,0,0,0-35.907,8.232,107.257,107.257,0,0,0-35.056,23.2,113.959,113.959,0,0,0-28.078,44.253q-9.214,25.867-9.206,56.317,0,30.958,10.188,56.581a121.557,121.557,0,0,0,29.593,44,124.866,124.866,0,0,0,35.037,22.475,107.365,107.365,0,0,0,33.434,7.928v-48.976a41.458,41.458,0,0,1-10.066-3.438,71,71,0,0,1-16.158-10.87,53.819,53.819,0,0,1-14.162-21.762,80.393,80.393,0,0,1-4.722-27.565h45.107v-44H2785.82a81.483,81.483,0,0,1,3.479-21.752A51.667,51.667,0,0,1,2799.223,1312.537Z" transform="translate(-2723.171 -1245.327)" fill="#fff"/>
        </g>
        <g id="Group_7" data-name="Group 7" transform="translate(2373.272 899.023)">
          <path id="Path_21" data-name="Path 21" d="M2799.223,820.952a51,51,0,0,1,17.9-14.006,52.91,52.91,0,0,1,14.3-4.394v-48.81a113.755,113.755,0,0,0-35.907,8.232,107.254,107.254,0,0,0-35.056,23.2,113.956,113.956,0,0,0-28.078,44.253q-9.215,25.867-9.206,56.317,0,30.959,10.188,56.581a121.55,121.55,0,0,0,29.593,44,124.854,124.854,0,0,0,35.036,22.475,107.35,107.35,0,0,0,33.434,7.929v-48.98a41.472,41.472,0,0,1-10.066-3.438A71,71,0,0,1,2805.2,953.44a53.816,53.816,0,0,1-14.161-21.762,80.374,80.374,0,0,1-4.722-27.564h45.107v-44h-45.607a81.5,81.5,0,0,1,3.479-21.751,51.669,51.669,0,0,1,9.929-17.407Z" transform="translate(-2723.171 -753.742)" fill="#009ede"/>
        </g>
        <g id="Group_8" data-name="Group 8" transform="translate(930.643 1061.38)">
          <path id="Path_22" data-name="Path 22" d="M739.208,1111.878a96.991,96.991,0,0,0-34.069-26.667,100.768,100.768,0,0,0-27.227-8.365V983.921c25.154,1.9,48.006,7.059,68.364,15.671q39.331,16.539,66.747,44.166,35.956,34.99,53.457,84.253,17.542,49.248,17.527,107.22,0,58.943-19.4,107.723-19.413,48.832-56.341,83.77a237.7,237.7,0,0,1-66.705,42.79q-28.032,12.054-63.651,15.095V1391.36a78.953,78.953,0,0,0,19.164-6.546,135.22,135.22,0,0,0,30.764-20.7q17.97-16.571,26.961-41.433a153.038,153.038,0,0,0,8.99-52.478H677.913V1186.43h86.829q-.951-23.892-6.624-41.413a98.455,98.455,0,0,0-18.91-33.139Z" transform="translate(-677.912 -983.921)" fill="#00467d"/>
        </g>
        <g id="Group_9" data-name="Group 9" transform="translate(3101.898 1698.779)">
          <path id="Path_23" data-name="Path 23" d="M3778.515,1934.234a35.41,35.41,0,0,0-12.422-9.723,36.794,36.794,0,0,0-9.927-3.049V1887.58a78.981,78.981,0,0,1,24.925,5.714,74.737,74.737,0,0,1,24.335,16.1,79.1,79.1,0,0,1,19.49,30.719,115.6,115.6,0,0,1,6.391,39.093,105.416,105.416,0,0,1-7.072,39.276,84.383,84.383,0,0,1-20.542,30.542,86.661,86.661,0,0,1-24.321,15.6,74.533,74.533,0,0,1-23.206,5.5v-34a28.806,28.806,0,0,0,6.987-2.387,49.277,49.277,0,0,0,11.215-7.547,37.352,37.352,0,0,0,9.83-15.107,55.779,55.779,0,0,0,3.279-19.134h-31.312v-30.542h31.658a56.7,56.7,0,0,0-2.415-15.1,35.867,35.867,0,0,0-6.894-12.083Z" transform="translate(-3756.165 -1887.581)" fill="#fff"/>
        </g>
        <path id="Path_24" data-name="Path 24" d="M1865.727,2027.227v-105.1h-132.5q1.45-36.458,10.109-63.2,8.657-26.651,28.857-50.574,20.217-25.286,51.992-40.693c12.575-6.116,26.552-10.208,41.545-12.767v-141.8c-38.386,2.9-73.257,10.774-104.322,23.911q-60.02,25.239-101.853,67.4-54.87,53.4-81.576,128.571-26.77,75.153-26.746,163.619c0,10.374.34,20.57.94,30.631Z" transform="translate(-4.591 -107.925)" fill="#fff"/>
        <path id="Path_25" data-name="Path 25" d="M1427.764,2098.856V2011.29a155.094,155.094,0,0,0-310.189,0v87.566Z" transform="translate(123.185 -179.554)" fill="#00467d"/>
        <g id="Group_10" data-name="Group 10" transform="translate(1550.949 39.05)">
          <path id="Path_26" data-name="Path 26" d="M1677.773-362.306q-4.655-25.149-21.493-49.458-18.6-27.681-47.666-40.988a147.346,147.346,0,0,0-51.274-12.714v56.9A62.937,62.937,0,0,1,1572.306-405a52.96,52.96,0,0,1,18.871,12.459q18.021,19.214,18.621,51.41H1557.34v51.444h125.084v-19.78a291.057,291.057,0,0,0-4.651-52.846Z" transform="translate(-1557.339 465.466)" fill="#fff"/>
          <path id="Path_27" data-name="Path 27" d="M1590.6-139.271a44.577,44.577,0,0,1-18.3,11.031,76.447,76.447,0,0,1-14.965,2.517v56.7a162.443,162.443,0,0,0,46.045-9.2,108.749,108.749,0,0,0,45.918-31.66,126.446,126.446,0,0,0,16.548-25.716q7.843-15.55,9.012-28.525H1605.13a54.152,54.152,0,0,1-14.53,24.847Z" transform="translate(-1557.339 376.675)" fill="#fff"/>
        </g>
        <g id="Group_11" data-name="Group 11" transform="translate(2481.521 1253.785)">
          <path id="Path_28" data-name="Path 28" d="M3096.519,1749.941Z" transform="translate(-2941.425 -1402.032)" fill="#009ede"/>
          <path id="Path_29" data-name="Path 29" d="M3341.921,1256.7h0a155.1,155.1,0,0,0-155.094,155.088v20.552h-.038c.019,1.012.038,2.025.038,3.042v14.134a155.1,155.1,0,0,1-155.088,155.094h-.006A155.1,155.1,0,0,0,2876.639,1759.7v162.519h620.38v-510.43A155.1,155.1,0,0,0,3341.928,1256.7Z" transform="translate(-2876.638 -1256.7)" fill="#009ede"/>
        </g>
      </g>
      <rect id="Rectangle_13" data-name="Rectangle 13" width="2791.706" height="1807.618" transform="translate(0.004 0.002)" fill="none"/>
    </g>
  </g>
</svg>
