<svg id="Group_94" data-name="Group 94" xmlns="http://www.w3.org/2000/svg" width="272.549" height="662.141" viewBox="0 0 272.549 662.141">
  <path id="Path_88" data-name="Path 88" d="M342.892,527.031q17.52-21.911,45.055-35.264a133.418,133.418,0,0,1,36-11.063V357.814c-33.264,2.515-63.486,9.336-90.408,20.725q-52.012,21.874-88.269,58.407-47.551,46.277-70.694,111.421-23.2,65.132-23.177,141.8,0,77.95,25.652,142.459Q202.723,897.2,251.563,943.4a314.339,314.339,0,0,0,88.213,56.587q37.073,15.944,84.176,19.965V896.642a104.455,104.455,0,0,1-25.345-8.657,178.837,178.837,0,0,1-40.683-27.369Q334.157,838.7,322.27,805.822a202.364,202.364,0,0,1-11.888-69.4h113.57V625.625H309.123q1.256-31.6,8.759-54.767Q325.384,547.762,342.892,527.031Z" transform="translate(-151.403 -357.814)" fill="#fff"/>
</svg>
