<?xml version="1.0" encoding="UTF-8" standalone="no"?>
<svg
   xmlns:dc="http://purl.org/dc/elements/1.1/"
   xmlns:cc="http://creativecommons.org/ns#"
   xmlns:rdf="http://www.w3.org/1999/02/22-rdf-syntax-ns#"
   xmlns:svg="http://www.w3.org/2000/svg"
   xmlns="http://www.w3.org/2000/svg"
   xmlns:sodipodi="http://sodipodi.sourceforge.net/DTD/sodipodi-0.dtd"
   xmlns:inkscape="http://www.inkscape.org/namespaces/inkscape"
   id="Laag_1"
   data-name="Laag 1"
   viewBox="0 0 182.94 50.27"
   version="1.1"
   sodipodi:docname="logo-fc-white.svg"
   width="182.94"
   height="50.27"
   inkscape:version="1.0.2 (1.0.2+r75+1)">
  <metadata
     id="metadata1137">
    <rdf:RDF>
      <cc:Work
         rdf:about="">
        <dc:format>image/svg+xml</dc:format>
        <dc:type
           rdf:resource="http://purl.org/dc/dcmitype/StillImage" />
        <dc:title></dc:title>
      </cc:Work>
    </rdf:RDF>
  </metadata>
  <sodipodi:namedview
     pagecolor="#505050"
     bordercolor="#eeeeee"
     borderopacity="1"
     objecttolerance="10"
     gridtolerance="10"
     guidetolerance="10"
     inkscape:pageopacity="0"
     inkscape:pageshadow="2"
     inkscape:window-width="2560"
     inkscape:window-height="1385"
     id="namedview1135"
     showgrid="false"
     fit-margin-top="0"
     fit-margin-left="0"
     fit-margin-right="0"
     fit-margin-bottom="0"
     inkscape:zoom="10.314136"
     inkscape:cx="72.270471"
     inkscape:cy="25.31"
     inkscape:window-x="0"
     inkscape:window-y="27"
     inkscape:window-maximized="1"
     inkscape:current-layer="Laag_1" />
  <defs
     id="defs1088">
    <style
       id="style1086">.cls-1{fill:#1d1d1b;}.cls-2{fill:#009fe1;}</style>
  </defs>
  <path
     class="cls-1"
     d="M 5.79,12.99 V 7.21 A 2.56,2.56 0 0 0 5.34,5.61 1.87,1.87 0 0 0 3.8,5.04 1.83,1.83 0 0 0 2.63,5.43 2.63,2.63 0 0 0 1.82,6.43 3.19,3.19 0 0 0 1.54,7.58 c 0,0.43 0,0.82 0,1.17 v 4.23 H 0 V 3.89 H 1.3 L 1.42,5.25 A 2.41,2.41 0 0 1 1.91,4.56 2.74,2.74 0 0 1 2.59,4.07 3.81,3.81 0 0 1 3.38,3.81 3.27,3.27 0 0 1 4.18,3.7 3,3 0 0 1 6.53,4.59 3.52,3.52 0 0 1 7.32,7.05 v 6 z"
     id="path1090"
     style="fill:#ffffff;fill-opacity:1" />
  <path
     class="cls-1"
     d="m 17.83,7.95 v 0.5 c 0,0.16 0,0.32 0,0.49 h -6.46 a 3.63,3.63 0 0 0 0.23,1.25 2.88,2.88 0 0 0 0.65,1 2.26,2.26 0 0 0 1.67,0.64 2.22,2.22 0 0 0 1.69,-0.59 2,2 0 0 0 0.33,-0.41 2.55,2.55 0 0 0 0.21,-0.58 h 1.5 a 3.15,3.15 0 0 1 -0.47,1.28 3.35,3.35 0 0 1 -0.94,1 4.12,4.12 0 0 1 -1.08,0.5 4.23,4.23 0 0 1 -1.24,0.18 3.89,3.89 0 0 1 -1.73,-0.4 3.74,3.74 0 0 1 -1.29,-1 4.25,4.25 0 0 1 -0.85,-1.53 5.92,5.92 0 0 1 -0.28,-1.85 7,7 0 0 1 0.16,-1.55 4.61,4.61 0 0 1 0.54,-1.36 3.91,3.91 0 0 1 1.37,-1.37 3.84,3.84 0 0 1 2.06,-0.54 3.78,3.78 0 0 1 1.58,0.32 3.64,3.64 0 0 1 1.19,0.88 4.35,4.35 0 0 1 0.85,1.41 4.9,4.9 0 0 1 0.31,1.73 z M 16.26,7.63 A 3.79,3.79 0 0 0 16.12,6.63 2.76,2.76 0 0 0 15.7,5.81 2,2 0 0 0 15,5.17 2.38,2.38 0 0 0 13.93,4.95 2.42,2.42 0 0 0 12.85,5.18 2.49,2.49 0 0 0 12,5.81 a 2.55,2.55 0 0 0 -0.46,0.86 3.25,3.25 0 0 0 -0.17,1 z"
     id="path1092"
     style="fill:#ffffff;fill-opacity:1" />
  <path
     class="cls-1"
     d="M 25,12.86 A 6.14,6.14 0 0 1 24.25,13.03 5.49,5.49 0 0 1 23.18,13.11 3.07,3.07 0 0 1 22,12.9 2,2 0 0 1 21.24,12.34 2.07,2.07 0 0 1 20.84,11.56 3.5,3.5 0 0 1 20.72,10.65 V 5.2 H 18.94 V 3.89 H 20.7 V 1.57 l 1.53,-0.36 v 2.68 h 2.7 V 5.2 h -2.7 v 5.27 a 1.27,1.27 0 0 0 0.3,0.95 1.26,1.26 0 0 0 0.92,0.29 4.78,4.78 0 0 0 0.53,0 l 0.5,-0.05 0.54,-0.09 z"
     id="path1094"
     style="fill:#ffffff;fill-opacity:1" />
  <path
     class="cls-1"
     d="M 33.06,12.99 V 7.21 a 2.5,2.5 0 0 0 -0.46,-1.6 2.17,2.17 0 0 0 -2.71,-0.18 2.83,2.83 0 0 0 -0.81,1 3.41,3.41 0 0 0 -0.27,1.15 c 0,0.43 0,0.82 0,1.17 v 4.23 H 27.23 V 0 h 1.53 v 5.09 a 2.83,2.83 0 0 1 1.15,-1.07 3.43,3.43 0 0 1 1.51,-0.37 3,3 0 0 1 2.37,0.89 3.52,3.52 0 0 1 0.8,2.46 v 6 z"
     id="path1096"
     style="fill:#ffffff;fill-opacity:1" />
  <path
     class="cls-1"
     d="m 45.13,7.95 v 0.5 c 0,0.16 0,0.32 0,0.49 h -6.46 a 3.63,3.63 0 0 0 0.23,1.25 2.88,2.88 0 0 0 0.65,1 2.26,2.26 0 0 0 1.67,0.64 2.22,2.22 0 0 0 1.69,-0.59 2,2 0 0 0 0.33,-0.41 2.55,2.55 0 0 0 0.21,-0.58 H 45 a 3.15,3.15 0 0 1 -0.47,1.28 3.35,3.35 0 0 1 -0.94,1 4.12,4.12 0 0 1 -1.08,0.5 4.23,4.23 0 0 1 -1.24,0.18 3.89,3.89 0 0 1 -1.78,-0.4 3.74,3.74 0 0 1 -1.29,-1 4.25,4.25 0 0 1 -0.85,-1.53 5.92,5.92 0 0 1 -0.28,-1.85 7,7 0 0 1 0.16,-1.55 4.61,4.61 0 0 1 0.54,-1.36 3.91,3.91 0 0 1 1.37,-1.37 3.85,3.85 0 0 1 2.07,-0.54 3.76,3.76 0 0 1 1.57,0.32 3.64,3.64 0 0 1 1.22,0.88 4.35,4.35 0 0 1 0.85,1.41 4.9,4.9 0 0 1 0.28,1.73 z M 43.56,7.63 A 3.79,3.79 0 0 0 43.42,6.63 2.76,2.76 0 0 0 43,5.81 2,2 0 0 0 42.27,5.2 2.36,2.36 0 0 0 41.21,4.98 a 2.44,2.44 0 0 0 -1.09,0.23 2.49,2.49 0 0 0 -0.78,0.61 2.55,2.55 0 0 0 -0.46,0.86 3.25,3.25 0 0 0 -0.17,1 z"
     id="path1098"
     style="fill:#ffffff;fill-opacity:1" />
  <path
     class="cls-1"
     d="M 52.61,5.38 52.18,5.33 a 3.1,3.1 0 0 0 -0.42,0 2.27,2.27 0 0 0 -1,0.21 2.32,2.32 0 0 0 -0.74,0.51 2.12,2.12 0 0 0 -0.44,0.62 3.09,3.09 0 0 0 -0.26,0.74 5.47,5.47 0 0 0 -0.1,0.8 q 0,0.39 0,0.75 v 4 H 47.7 V 3.89 h 1.35 l 0.12,1.6 a 2.44,2.44 0 0 1 1.11,-1.25 3.32,3.32 0 0 1 1.61,-0.43 4.37,4.37 0 0 1 0.72,0.06 z"
     id="path1100"
     style="fill:#ffffff;fill-opacity:1" />
  <path
     class="cls-1"
     d="m 57.53,12.99 -0.26,0.05 A 4,4 0 0 1 56.46,13.1 1.74,1.74 0 0 1 55,12.52 2.62,2.62 0 0 1 54.55,10.87 V 0 h 1.53 v 10.81 a 1.15,1.15 0 0 0 0.18,0.7 0.78,0.78 0 0 0 0.65,0.23 h 0.5 a 0.22,0.22 0 0 0 0.12,0 z"
     id="path1102"
     style="fill:#ffffff;fill-opacity:1" />
  <path
     class="cls-1"
     d="m 67.46,12.9 a 2.14,2.14 0 0 1 -0.48,0.17 2.82,2.82 0 0 1 -0.52,0 1.22,1.22 0 0 1 -1,-0.4 1.47,1.47 0 0 1 -0.35,-1 v 0 a 2.9,2.9 0 0 1 -1.18,1.14 3.77,3.77 0 0 1 -1.76,0.4 3.61,3.61 0 0 1 -1.37,-0.24 2.93,2.93 0 0 1 -1,-0.64 2.7,2.7 0 0 1 -0.59,-0.9 2.79,2.79 0 0 1 -0.19,-1 3.1,3.1 0 0 1 0.15,-0.92 2.34,2.34 0 0 1 0.53,-0.89 3.05,3.05 0 0 1 1,-0.69 4.17,4.17 0 0 1 1.55,-0.35 L 65.02,7.42 V 6.75 A 3.05,3.05 0 0 0 65,6.03 1.22,1.22 0 0 0 64.61,5.36 1.65,1.65 0 0 0 64,5.02 2.83,2.83 0 0 0 63.09,4.89 2.87,2.87 0 0 0 62.09,5.05 1.73,1.73 0 0 0 61.46,5.43 1.5,1.5 0 0 0 61,6.53 h -1.5 a 2.78,2.78 0 0 1 0.22,-1.09 2.83,2.83 0 0 1 0.57,-0.81 2.77,2.77 0 0 1 1.21,-0.73 4.9,4.9 0 0 1 1.59,-0.25 3.9,3.9 0 0 1 2.11,0.5 2.72,2.72 0 0 1 1.09,1.25 3.53,3.53 0 0 1 0.27,1.41 v 4.4 a 0.64,0.64 0 0 0 0.14,0.48 0.49,0.49 0 0 0 0.37,0.13 h 0.12 0.13 0.14 z M 65.05,8.6 62.61,8.74 a 3.64,3.64 0 0 0 -0.71,0.12 2.2,2.2 0 0 0 -0.64,0.29 1.47,1.47 0 0 0 -0.47,0.49 1.45,1.45 0 0 0 -0.18,0.74 1.64,1.64 0 0 0 0.39,1.09 1.76,1.76 0 0 0 1.39,0.47 2.9,2.9 0 0 0 1,-0.17 2.25,2.25 0 0 0 0.86,-0.56 2.53,2.53 0 0 0 0.59,-1 3.49,3.49 0 0 0 0.18,-1.11 z"
     id="path1104"
     style="fill:#ffffff;fill-opacity:1" />
  <path
     class="cls-1"
     d="M 75.72,12.99 V 7.21 a 2.56,2.56 0 0 0 -0.46,-1.6 2.17,2.17 0 0 0 -2.71,-0.18 2.83,2.83 0 0 0 -0.81,1 3.41,3.41 0 0 0 -0.28,1.15 c 0,0.43 0,0.82 0,1.17 v 4.23 H 69.89 V 3.89 h 1.33 l 0.13,1.36 a 2.38,2.38 0 0 1 0.48,-0.69 2.79,2.79 0 0 1 0.69,-0.49 3.61,3.61 0 0 1 0.79,-0.26 3.2,3.2 0 0 1 0.79,-0.11 3,3 0 0 1 2.35,0.89 3.52,3.52 0 0 1 0.8,2.46 v 6 z"
     id="path1106"
     style="fill:#ffffff;fill-opacity:1" />
  <path
     class="cls-1"
     d="m 86.42,12.99 -0.11,-1.18 a 2.5,2.5 0 0 1 -1.17,1 3.52,3.52 0 0 1 -1.55,0.37 4,4 0 0 1 -1.48,-0.26 3.08,3.08 0 0 1 -1.11,-0.69 4.24,4.24 0 0 1 -1,-1.65 6.68,6.68 0 0 1 -0.33,-2.12 6.83,6.83 0 0 1 0.35,-2.21 4.33,4.33 0 0 1 1,-1.68 3.51,3.51 0 0 1 1.07,-0.66 3.76,3.76 0 0 1 1.43,-0.26 3.37,3.37 0 0 1 0.77,0.09 3.82,3.82 0 0 1 0.74,0.26 2.77,2.77 0 0 1 0.66,0.4 2.07,2.07 0 0 1 0.48,0.55 V 0 H 87.7 V 13 Z M 86.33,8.44 A 5.73,5.73 0 0 0 86.11,6.81 2.59,2.59 0 0 0 85.32,5.54 2.42,2.42 0 0 0 84.7,5.12 2,2 0 0 0 83.85,4.95 a 2.4,2.4 0 0 0 -1.26,0.3 2.27,2.27 0 0 0 -0.79,0.81 3.46,3.46 0 0 0 -0.41,1.13 6.54,6.54 0 0 0 -0.12,1.25 6.62,6.62 0 0 0 0.12,1.25 3.41,3.41 0 0 0 0.41,1.12 2.12,2.12 0 0 0 0.79,0.81 2.31,2.31 0 0 0 1.26,0.31 2,2 0 0 0 0.85,-0.12 2.74,2.74 0 0 0 0.62,-0.43 2.52,2.52 0 0 0 0.79,-1.26 5.78,5.78 0 0 0 0.22,-1.68 z"
     id="path1108"
     style="fill:#ffffff;fill-opacity:1" />
  <path
     class="cls-1"
     d="m 97.86,10.34 a 2.71,2.71 0 0 1 -0.2,1.06 2.9,2.9 0 0 1 -0.52,0.8 3,3 0 0 1 -1.3,0.78 6,6 0 0 1 -3.29,0 3.15,3.15 0 0 1 -1.33,-0.8 3.06,3.06 0 0 1 -0.65,-1 2.91,2.91 0 0 1 -0.23,-1.12 h 1.53 a 1.81,1.81 0 0 0 0.21,0.82 2.13,2.13 0 0 0 0.52,0.6 1.69,1.69 0 0 0 0.76,0.32 3.81,3.81 0 0 0 0.88,0.09 4.26,4.26 0 0 0 0.89,-0.09 1.84,1.84 0 0 0 0.78,-0.41 1.07,1.07 0 0 0 0.33,-0.41 A 1.4,1.4 0 0 0 96.36,10.4 1.13,1.13 0 0 0 96,9.59 1.82,1.82 0 0 0 94.94,9.16 L 94.55,9.1 94,9.03 93.41,8.96 92.88,8.89 a 2.88,2.88 0 0 1 -1.63,-0.78 2.31,2.31 0 0 1 -0.6,-1.67 2.32,2.32 0 0 1 0.23,-1 2.82,2.82 0 0 1 0.53,-0.78 3.13,3.13 0 0 1 1.13,-0.74 4.2,4.2 0 0 1 1.55,-0.27 4.68,4.68 0 0 1 1.67,0.29 2.79,2.79 0 0 1 1.24,0.87 2.83,2.83 0 0 1 0.48,0.77 2.59,2.59 0 0 1 0.17,1 H 96.11 A 1.61,1.61 0 0 0 95.94,5.92 1.75,1.75 0 0 0 95.59,5.45 2.13,2.13 0 0 0 94.1,4.96 H 93.59 A 1.81,1.81 0 0 0 93,5.11 1.55,1.55 0 0 0 92.32,5.62 1.21,1.21 0 0 0 92.08,6.33 1,1 0 0 0 92.4,7.17 2,2 0 0 0 93.3,7.52 l 0.92,0.12 c 0.36,0 0.78,0.1 1.28,0.19 a 3,3 0 0 1 1.64,0.82 2.29,2.29 0 0 1 0.72,1.69 z"
     id="path1110"
     style="fill:#ffffff;fill-opacity:1" />
  <path
     class="cls-1"
     d="m 117.05,38.89 a 6.58,6.58 0 0 1 -0.34,1.7 5.16,5.16 0 0 1 -0.78,1.47 6.36,6.36 0 0 1 -2,1.63 6.21,6.21 0 0 1 -3,0.67 6.38,6.38 0 0 1 -3,-0.69 6.53,6.53 0 0 1 -2.07,-1.61 7.23,7.23 0 0 1 -1.21,-2.38 11.31,11.31 0 0 1 0,-5.89 7.14,7.14 0 0 1 1.21,-2.38 6.52,6.52 0 0 1 5.07,-2.3 6.21,6.21 0 0 1 3,0.67 6.36,6.36 0 0 1 2,1.63 5.16,5.16 0 0 1 0.78,1.47 6.5,6.5 0 0 1 0.34,1.69 h -3.45 a 3.37,3.37 0 0 0 -0.14,-0.73 3.78,3.78 0 0 0 -0.28,-0.61 2.47,2.47 0 0 0 -0.87,-0.79 2.9,2.9 0 0 0 -1.38,-0.31 2.77,2.77 0 0 0 -1.24,0.26 3.07,3.07 0 0 0 -0.89,0.64 3.23,3.23 0 0 0 -0.8,1.68 12.24,12.24 0 0 0 -0.17,2 12,12 0 0 0 0.17,2 3.24,3.24 0 0 0 0.81,1.67 3.1,3.1 0 0 0 0.89,0.65 2.64,2.64 0 0 0 1.24,0.27 2.79,2.79 0 0 0 1.38,-0.31 2.36,2.36 0 0 0 0.87,-0.78 3.89,3.89 0 0 0 0.28,-0.62 3.26,3.26 0 0 0 0.14,-0.73 z"
     id="path1112"
     style="fill:#ffffff;fill-opacity:1" />
  <path
     class="cls-1"
     d="m 143,44.05 v -8.94 a 3.55,3.55 0 0 0 -0.5,-2 2.16,2.16 0 0 0 -1.91,-0.73 2.28,2.28 0 0 0 -1.54,0.52 3.61,3.61 0 0 0 -1,1.33 5,5 0 0 0 -0.42,1.89 q -0.06,1.08 -0.06,2 v 5.94 h -3.5 V 29.47 H 137 l 0.25,1.88 a 3.94,3.94 0 0 1 1.84,-1.7 5.86,5.86 0 0 1 2.45,-0.54 5.26,5.26 0 0 1 2.09,0.39 4.37,4.37 0 0 1 1.54,1.08 4.68,4.68 0 0 1 1,1.65 6.45,6.45 0 0 1 0.34,2.09 v 9.73 z"
     id="path1114"
     style="fill:#ffffff;fill-opacity:1" />
  <path
     class="cls-1"
     d="m 158,43.81 a 11.46,11.46 0 0 1 -3,0.4 4.27,4.27 0 0 1 -3.3,-1.19 4.71,4.71 0 0 1 -1.1,-3.3 v -7.4 h -2.66 v -2.85 h 2.66 v -3.66 l 3.51,-0.87 v 4.57 h 3.67 v 2.89 h -3.67 v 7.09 a 1.64,1.64 0 0 0 0.39,1.22 1.72,1.72 0 0 0 1.23,0.38 q 0.57,0 1,0 c 0.33,0 0.74,-0.05 1.22,-0.11 z"
     id="path1116"
     style="fill:#ffffff;fill-opacity:1" />
  <path
     class="cls-1"
     d="m 182.94,32.72 a 6,6 0 0 0 -1.21,-0.14 3.4,3.4 0 0 0 -2.8,1.18 4.52,4.52 0 0 0 -1,2.94 v 7.35 H 174.4 V 29.47 h 3 l 0.31,2.19 a 3.29,3.29 0 0 1 1.68,-1.85 5.51,5.51 0 0 1 2.45,-0.57 7,7 0 0 1 1.1,0.09 z"
     id="path1118"
     style="fill:#ffffff;fill-opacity:1" />
  <path
     class="cls-2"
     d="M 2.24,32.75 A 2.58,2.58 0 0 0 1.33,32.13 3.66,3.66 0 0 0 0,31.91 v 0 3.39 h 3.14 a 3.76,3.76 0 0 0 -0.9,-2.55 z"
     id="path1120"
     style="fill:#ffffff;fill-opacity:1" />
  <path
     class="cls-2"
     d="m 54.86,32.13 a 3.66,3.66 0 0 0 -1.31,-0.22 3.1,3.1 0 0 0 -1.43,0.31 3,3 0 0 0 -1,0.81 3.27,3.27 0 0 0 -0.56,1 5.06,5.06 0 0 0 -0.19,1.26 h 6.31 a 3.76,3.76 0 0 0 -0.9,-2.55 2.58,2.58 0 0 0 -0.92,-0.61 z"
     id="path1122"
     style="fill:#ffffff;fill-opacity:1" />
  <path
     class="cls-2"
     d="m 95.47,33.03 a 3.08,3.08 0 0 0 -0.56,1 4.64,4.64 0 0 0 -0.19,1.26 h 3.14 v -3.38 a 3.18,3.18 0 0 0 -1.38,0.31 2.9,2.9 0 0 0 -1.01,0.81 z"
     id="path1124"
     style="fill:#ffffff;fill-opacity:1" />
  <path
     class="cls-2"
     d="m 95,39.45 a 3,3 0 0 0 0.8,1.26 3.8,3.8 0 0 0 0.91,0.64 2.82,2.82 0 0 0 1.14,0.26 v -3.8 H 94.74 A 4.67,4.67 0 0 0 95,39.45 Z"
     id="path1126"
     style="fill:#ffffff;fill-opacity:1" />
  <path
     class="cls-2"
     d="m 95.4,43.92 a 6.75,6.75 0 0 1 -2,-1.3 7,7 0 0 1 -1.67,-2.55 8.86,8.86 0 0 1 -0.55,-3.26 10.1,10.1 0 0 1 0.52,-3.27 6.56,6.56 0 0 1 1.59,-2.56 6.16,6.16 0 0 1 2,-1.35 6.62,6.62 0 0 1 2.6,-0.5 v -3.15 a 6,6 0 0 0 -6,-6 H 0 v 9.13 h 0.08 a 7,7 0 0 1 3,0.66 5.46,5.46 0 0 1 2.3,2 6.43,6.43 0 0 1 1,2.45 14.88,14.88 0 0 1 0.22,2.45 v 1.14 H 0 v 3.8 h 0.11 a 4.4,4.4 0 0 0 1.25,-0.15 2.17,2.17 0 0 0 0.88,-0.55 2.7,2.7 0 0 0 0.7,-1.23 H 6.28 A 4.13,4.13 0 0 1 5.84,41.09 6.28,6.28 0 0 1 5,42.37 5.2,5.2 0 0 1 2.79,43.94 7.66,7.66 0 0 1 0.1,44.42 H 0 a 6,6 0 0 0 6,5.85 H 97.86 V 44.41 A 6.37,6.37 0 0 1 95.4,43.92 Z M 23.54,40.55 a 6,6 0 0 1 -1.19,1.73 6.45,6.45 0 0 1 -2.79,1.64 12.07,12.07 0 0 1 -3.49,0.5 11,11 0 0 1 -3.16,-0.47 7.07,7.07 0 0 1 -2.79,-1.58 6.48,6.48 0 0 1 -1.48,-2 5.7,5.7 0 0 1 -0.59,-2.62 h 3.7 a 3.25,3.25 0 0 0 0.25,1.35 3.85,3.85 0 0 0 0.75,1.08 3.14,3.14 0 0 0 1.55,0.86 7.93,7.93 0 0 0 3.75,0 3.07,3.07 0 0 0 1.48,-0.83 3.68,3.68 0 0 0 0.56,-0.77 2.35,2.35 0 0 0 0.23,-1.13 A 2,2 0 0 0 19.6,36.66 3.74,3.74 0 0 0 18,35.92 19.27,19.27 0 0 0 15.79,35.64 C 14.98,35.58 14.25,35.5 13.6,35.39 A 7.48,7.48 0 0 1 11.65,34.81 5.46,5.46 0 0 1 10.05,33.7 5.1,5.1 0 0 1 9,32.04 5.68,5.68 0 0 1 8.55,29.81 4.82,4.82 0 0 1 9,27.68 a 6.49,6.49 0 0 1 1.26,-1.77 6.8,6.8 0 0 1 2.52,-1.54 10,10 0 0 1 6.38,-0.07 6.68,6.68 0 0 1 2.48,1.44 7,7 0 0 1 1.45,1.91 5.34,5.34 0 0 1 0.57,2.33 H 20 a 3.11,3.11 0 0 0 -0.26,-1.06 3.54,3.54 0 0 0 -0.61,-0.91 3.21,3.21 0 0 0 -1.34,-0.78 5.39,5.39 0 0 0 -1.69,-0.28 6.94,6.94 0 0 0 -1.72,0.22 3.08,3.08 0 0 0 -1.5,0.87 2.83,2.83 0 0 0 -0.49,0.73 2.27,2.27 0 0 0 -0.18,0.95 1.9,1.9 0 0 0 0.56,1.5 2.64,2.64 0 0 0 1.46,0.66 c 0.63,0.1 1.35,0.18 2.14,0.25 0.79,0.07 1.52,0.16 2.17,0.26 a 8.22,8.22 0 0 1 2.12,0.6 5.92,5.92 0 0 1 1.74,1.15 5.37,5.37 0 0 1 1.18,1.72 5.71,5.71 0 0 1 0.42,2.27 5.77,5.77 0 0 1 -0.46,2.42 z m 5.9,-1.81 a 3.24,3.24 0 0 0 0.81,1.67 3.33,3.33 0 0 0 0.89,0.66 3.16,3.16 0 0 0 2.62,0 2.36,2.36 0 0 0 0.87,-0.78 3.53,3.53 0 0 0 0.28,-0.62 3.26,3.26 0 0 0 0.14,-0.73 h 3.45 a 6.58,6.58 0 0 1 -0.34,1.7 5.16,5.16 0 0 1 -0.78,1.47 6.36,6.36 0 0 1 -2,1.63 6.21,6.21 0 0 1 -3,0.67 6.38,6.38 0 0 1 -3,-0.69 6.53,6.53 0 0 1 -2.07,-1.61 7.23,7.23 0 0 1 -1.21,-2.38 11.31,11.31 0 0 1 0,-5.89 7.14,7.14 0 0 1 1.21,-2.38 6.52,6.52 0 0 1 5.07,-2.3 6.21,6.21 0 0 1 3,0.67 6.36,6.36 0 0 1 2,1.63 5.16,5.16 0 0 1 0.78,1.47 6.59,6.59 0 0 1 0.34,1.69 h -3.45 a 3.17,3.17 0 0 0 -0.14,-0.72 3.53,3.53 0 0 0 -0.28,-0.62 2.47,2.47 0 0 0 -0.87,-0.79 2.9,2.9 0 0 0 -1.38,-0.31 2.77,2.77 0 0 0 -1.24,0.26 3.07,3.07 0 0 0 -0.89,0.64 3.23,3.23 0 0 0 -0.81,1.68 12.24,12.24 0 0 0 -0.17,2 12,12 0 0 0 0.17,1.98 z m 14.92,5.31 H 40.8 V 29.47 h 3.56 z m 0.08,-16.6 h -3.76 v -3.64 h 3.76 z m 15.73,10.36 h -9.78 a 4.67,4.67 0 0 0 0.26,1.6 3.14,3.14 0 0 0 0.8,1.26 4,4 0 0 0 0.91,0.64 2.81,2.81 0 0 0 1.25,0.26 4.4,4.4 0 0 0 1.25,-0.15 2.17,2.17 0 0 0 0.88,-0.55 2.7,2.7 0 0 0 0.7,-1.23 h 3.37 a 4.13,4.13 0 0 1 -0.44,1.41 6.28,6.28 0 0 1 -0.8,1.28 5.2,5.2 0 0 1 -2.21,1.57 7.66,7.66 0 0 1 -2.69,0.48 6.43,6.43 0 0 1 -2.63,-0.5 6.68,6.68 0 0 1 -3.64,-3.85 9.07,9.07 0 0 1 -0.58,-3.22 10.1,10.1 0 0 1 0.52,-3.27 6.68,6.68 0 0 1 1.59,-2.56 6.16,6.16 0 0 1 2,-1.35 6.64,6.64 0 0 1 2.68,-0.5 7,7 0 0 1 3,0.66 5.46,5.46 0 0 1 2.3,2 6.43,6.43 0 0 1 1,2.45 14.88,14.88 0 0 1 0.22,2.45 v 1.12 z M 75,44.05 h -3.53 v -8.94 a 3.55,3.55 0 0 0 -0.5,-2 2.18,2.18 0 0 0 -1.91,-0.73 2.28,2.28 0 0 0 -1.54,0.52 3.61,3.61 0 0 0 -1,1.33 5,5 0 0 0 -0.42,1.89 q -0.06,1.08 -0.06,2 v 5.94 H 62.55 V 29.47 h 3 l 0.25,1.88 a 3.94,3.94 0 0 1 1.84,-1.7 5.86,5.86 0 0 1 2.36,-0.54 5.26,5.26 0 0 1 2.09,0.39 4.37,4.37 0 0 1 1.54,1.08 4.83,4.83 0 0 1 1,1.65 6.45,6.45 0 0 1 0.37,2.09 z m 5.94,-5.31 a 3.24,3.24 0 0 0 0.81,1.67 3.18,3.18 0 0 0 0.89,0.66 3.16,3.16 0 0 0 2.62,0 2.36,2.36 0 0 0 0.87,-0.78 3.53,3.53 0 0 0 0.28,-0.62 3.26,3.26 0 0 0 0.14,-0.73 H 90 a 6.58,6.58 0 0 1 -0.34,1.7 5,5 0 0 1 -0.79,1.47 6.27,6.27 0 0 1 -5,2.3 6.61,6.61 0 0 1 -5.07,-2.3 7,7 0 0 1 -1.21,-2.38 11.31,11.31 0 0 1 0,-5.89 7,7 0 0 1 1.21,-2.38 6.52,6.52 0 0 1 5.07,-2.3 6.27,6.27 0 0 1 5,2.3 5,5 0 0 1 0.79,1.47 6.59,6.59 0 0 1 0.34,1.64 h -3.47 a 3.17,3.17 0 0 0 -0.14,-0.72 3.53,3.53 0 0 0 -0.28,-0.62 2.47,2.47 0 0 0 -0.87,-0.79 2.9,2.9 0 0 0 -1.38,-0.31 2.77,2.77 0 0 0 -1.24,0.26 2.94,2.94 0 0 0 -0.89,0.64 3.23,3.23 0 0 0 -0.81,1.68 12.24,12.24 0 0 0 -0.17,2 12,12 0 0 0 0.17,2.03 z"
     id="path1128"
     style="fill:#ffffff;fill-opacity:1" />
  <path
     class="cls-1"
     d="m 131.69,36.7 a 14.88,14.88 0 0 0 -0.22,-2.45 6.41,6.41 0 0 0 -1,-2.45 5.46,5.46 0 0 0 -2.3,-2 7.06,7.06 0 0 0 -3,-0.66 6.64,6.64 0 0 0 -2.68,0.5 6.2,6.2 0 0 0 -2,1.35 6.54,6.54 0 0 0 -1.58,2.56 9.84,9.84 0 0 0 -0.52,3.27 8.86,8.86 0 0 0 0.58,3.28 6.6,6.6 0 0 0 3.64,3.85 6.38,6.38 0 0 0 2.62,0.5 7.62,7.62 0 0 0 2.69,-0.48 5.29,5.29 0 0 0 2.22,-1.57 6.28,6.28 0 0 0 0.8,-1.28 4.09,4.09 0 0 0 0.43,-1.41 H 128 a 2.79,2.79 0 0 1 -0.7,1.23 2.21,2.21 0 0 1 -0.89,0.55 4.28,4.28 0 0 1 -1.24,0.15 2.78,2.78 0 0 1 -1.25,-0.26 3.8,3.8 0 0 1 -0.91,-0.64 3,3 0 0 1 -0.8,-1.26 4.67,4.67 0 0 1 -0.27,-1.6 h 9.79 z m -9.81,-1.4 a 5,5 0 0 1 0.2,-1.26 3.08,3.08 0 0 1 0.56,-1 2.9,2.9 0 0 1 1,-0.81 3.1,3.1 0 0 1 1.43,-0.31 3.61,3.61 0 0 1 1.3,0.22 2.49,2.49 0 0 1 0.91,0.62 3.76,3.76 0 0 1 0.9,2.55 z"
     id="path1130"
     style="fill:#ffffff;fill-opacity:1" />
  <path
     class="cls-1"
     d="m 172.08,36.7 a 14.88,14.88 0 0 0 -0.22,-2.45 6.28,6.28 0 0 0 -1,-2.45 5.35,5.35 0 0 0 -2.3,-2 7,7 0 0 0 -3,-0.66 6.61,6.61 0 0 0 -2.68,0.5 6.1,6.1 0 0 0 -2,1.35 6.54,6.54 0 0 0 -1.58,2.56 9.84,9.84 0 0 0 -0.52,3.27 9.07,9.07 0 0 0 0.57,3.28 7.15,7.15 0 0 0 1.65,2.52 6.93,6.93 0 0 0 2,1.3 6.38,6.38 0 0 0 2.62,0.5 7.62,7.62 0 0 0 2.69,-0.48 5.29,5.29 0 0 0 2.22,-1.57 6.75,6.75 0 0 0 0.8,-1.28 4.09,4.09 0 0 0 0.43,-1.41 h -3.36 a 2.79,2.79 0 0 1 -0.7,1.23 2.21,2.21 0 0 1 -0.89,0.55 4.31,4.31 0 0 1 -1.25,0.15 2.77,2.77 0 0 1 -1.24,-0.26 3.8,3.8 0 0 1 -0.91,-0.64 2.94,2.94 0 0 1 -0.8,-1.26 4.67,4.67 0 0 1 -0.27,-1.6 h 9.79 z m -9.81,-1.4 a 5,5 0 0 1 0.2,-1.26 3.08,3.08 0 0 1 0.56,-1 2.9,2.9 0 0 1 1,-0.81 3.1,3.1 0 0 1 1.43,-0.31 3.61,3.61 0 0 1 1.3,0.22 2.49,2.49 0 0 1 0.91,0.62 3.76,3.76 0 0 1 0.9,2.55 z"
     id="path1132"
     style="fill:#ffffff;fill-opacity:1" />
</svg>
