<?xml version="1.0" encoding="UTF-8" standalone="no"?>
<!-- Created with Inkscape (http://www.inkscape.org/) -->

<svg
   xmlns:dc="http://purl.org/dc/elements/1.1/"
   xmlns:cc="http://creativecommons.org/ns#"
   xmlns:rdf="http://www.w3.org/1999/02/22-rdf-syntax-ns#"
   xmlns:svg="http://www.w3.org/2000/svg"
   xmlns="http://www.w3.org/2000/svg"
   xmlns:sodipodi="http://sodipodi.sourceforge.net/DTD/sodipodi-0.dtd"
   xmlns:inkscape="http://www.inkscape.org/namespaces/inkscape"
   id="svg2"
   version="1.1"
   inkscape:version="0.92.4 5da689c313, 2019-01-14"
   xml:space="preserve"
   width="879.22864"
   height="724.4671"
   viewBox="0 0 879.22864 724.4671"
   sodipodi:docname="development-speed.svg"><metadata
     id="metadata8"><rdf:RDF><cc:Work
         rdf:about=""><dc:format>image/svg+xml</dc:format><dc:type
           rdf:resource="http://purl.org/dc/dcmitype/StillImage" /><dc:title /></cc:Work></rdf:RDF></metadata><defs
     id="defs6" /><sodipodi:namedview
     pagecolor="#ffffff"
     bordercolor="#666666"
     borderopacity="1"
     objecttolerance="10"
     gridtolerance="10"
     guidetolerance="10"
     inkscape:pageopacity="0"
     inkscape:pageshadow="2"
     inkscape:window-width="2560"
     inkscape:window-height="1298"
     id="namedview4"
     showgrid="false"
     inkscape:zoom="1.3698432"
     inkscape:cx="404.21568"
     inkscape:cy="329.35274"
     inkscape:window-x="0"
     inkscape:window-y="58"
     inkscape:window-maximized="1"
     inkscape:current-layer="g10"
     fit-margin-top="0"
     fit-margin-left="0"
     fit-margin-right="0"
     fit-margin-bottom="0" /><g
     id="g10"
     inkscape:groupmode="layer"
     inkscape:label="ink_ext_XXXXXX"
     transform="matrix(1.25,0,0,-1.25,3.1997347,731.41548)"><path
   inkscape:connector-curvature="0"
   id="path14"
   style="fill:none;stroke:#000000;stroke-width:1;stroke-linecap:butt;stroke-linejoin:miter;stroke-miterlimit:3.79999995;stroke-dasharray:none;stroke-opacity:1"
   d="m 19.8,41.95 680.35,0" /><path
   inkscape:connector-curvature="0"
   id="path16"
   style="fill:none;stroke:#000000;stroke-width:1;stroke-linecap:butt;stroke-linejoin:miter;stroke-miterlimit:3.79999995;stroke-dasharray:none;stroke-opacity:1"
   d="m 52.2,18.7 0,488.25" /><path
   inkscape:connector-curvature="0"
   id="path40"
   style="fill:none;stroke:#0000ff;stroke-width:1.6;stroke-linecap:butt;stroke-linejoin:miter;stroke-miterlimit:3.79999995;stroke-dasharray:none;stroke-opacity:1"
   d="m 657.4,498.3 29.55,0 M 54.15,64.4 l 6.9,20.8 6.85,14.05 6.9,10.1 6.85,11.75 6.85,6.65 6.9,9.95 6.85,5.25 6.9,9.8 6.85,5.8 6.9,6.65 6.85,5.25 6.9,5.1 6.85,5.7 6.85,1.95 6.9,5.55 6.85,7.2 6.9,2.3 6.85,4.55 6.9,6.3 6.85,2.35 6.9,5.55 6.85,1.4 6.85,8.2 6.9,2.8 6.85,4.95 6.9,1.3 6.85,5.75 6.9,1.7 6.85,2 6.9,5.65 6.85,2.9 6.85,5.4 6.9,0.15 6.85,4.85 6.9,3.35 6.85,3.7 6.9,0.7 6.85,4.45 6.9,2.2 6.85,5.1 6.85,2.1 6.9,4.45 6.85,1.4 6.9,4.05 6.85,0.45 6.9,3.65 6.85,2 6.9,3.8 6.85,0.3 6.85,4.6 6.9,2.8 6.85,4.65 6.9,0.5 6.85,1.4 6.9,3.75 6.85,4.5 6.9,1.5 6.85,-0.1 6.85,4.45 6.9,2.8 6.85,1.4 6.9,4.65 6.85,0.3 6.9,1.35 6.85,4.8 6.9,-0.15 6.85,3.55 6.85,3.35 6.9,0.1 6.85,3.9 6.9,2.1 6.85,3.05 6.9,2.65 6.85,-0.45 6.9,1.8 6.85,4.8 6.85,2.15 6.9,0.65 6.85,1.7 6.9,3.35 6.85,2.75 6.9,1.7 6.85,3.5 6.9,0.3 6.85,3.15 6.85,2.45 6.9,-1.3 6.85,1.75 6.9,5.45 6.85,-1.35 6.9,1.35 6.85,4.6 6.9,3.8 6.85,-2.1" /><path
   inkscape:connector-curvature="0"
   id="path48"
   style="fill:none;stroke:#ff0000;stroke-width:1.6;stroke-linecap:butt;stroke-linejoin:miter;stroke-miterlimit:3.79999995;stroke-dasharray:none;stroke-opacity:1"
   d="m 657.4,487.3 29.55,0 m -626.55,19.65 0.65,-43.45 6.85,-109 6.9,-49.15 6.85,-34.05 6.85,-22.75 6.9,-15.15 6.85,-15.7 6.9,-10.65 6.85,-8.95 6.9,-9.1 6.85,-3.15 6.9,-6.95 6.85,-6.25 6.85,-3.9 6.9,-6.95 6.85,-3.2 6.9,-2.65 6.85,-2.25 6.9,-4.15 6.85,-3.85 6.9,-1.2 6.85,-2.55 6.85,-2.3 6.9,-3.3 6.85,2.05 6.9,-5.4 6.85,1.95 6.9,-1.5 6.85,-1.4 6.9,-5.65 6.85,1.15 6.85,-2.45 6.9,-0.45 6.85,-2.25 6.9,-1.35 6.85,0.5 6.9,-1.65 6.85,-1.1 6.9,0.4 6.85,-0.05 6.85,-1.8 6.9,-4.25 6.85,-0.4 6.9,0.5 6.85,1 6.9,-2.3 6.85,-2.6 6.9,1.1 6.85,1.45 6.85,-3.75 6.9,0.75 6.85,-0.85 6.9,0.9 6.85,-3.3 6.9,0.2 6.85,1.6 6.9,-1.6 6.85,-2.45 6.85,2.7 6.9,-0.85 6.85,-4.6 6.9,1.9 6.85,-0.85 6.9,-1.65 6.85,0.35 6.9,2.1 6.85,-2.55 6.85,-0.75 6.9,2.2 6.85,-3.4 6.9,-0.35 6.85,1.85 6.9,0.05 6.85,-3.35 6.9,1 6.85,1.05 6.85,-0.95 6.9,-1.35 6.85,0.9 6.9,-2.85 6.85,1.65 6.9,-2.65 6.85,3.15 6.9,-3 6.85,0.05 6.85,-1.3 6.9,-0.75 6.85,2.45 6.9,-2.65 6.85,2.8 6.9,-1.95 6.85,-1.45 6.9,0.95 6.85,0.7" /><path
   inkscape:connector-curvature="0"
   id="path50"
   style="fill:none;stroke:#000000;stroke-width:0.5;stroke-linecap:butt;stroke-linejoin:miter;stroke-miterlimit:3.79999995;stroke-dasharray:none;stroke-opacity:1"
   d="m 684.4,48.25 15.75,-6.3 -15.75,-6.3 m -18.25,6.3 34,0" /><path
   inkscape:connector-curvature="0"
   id="path52"
   style="fill:none;stroke:#000000;stroke-width:0.5;stroke-linecap:butt;stroke-linejoin:miter;stroke-miterlimit:3.79999995;stroke-dasharray:none;stroke-opacity:1"
   d="m 684.4,48.25 15.75,-6.3 -15.75,-6.3" /><path
   inkscape:connector-curvature="0"
   id="path54"
   style="fill:none;stroke:#000000;stroke-width:0.5;stroke-linecap:butt;stroke-linejoin:miter;stroke-miterlimit:3.79999995;stroke-dasharray:none;stroke-opacity:1"
   d="m 46.3,496.3 5.9,10.65 5.9,-10.65 m -5.9,-13.75 0,24.4" /><path
   inkscape:connector-curvature="0"
   id="path56"
   style="fill:none;stroke:#000000;stroke-width:0.5;stroke-linecap:butt;stroke-linejoin:miter;stroke-miterlimit:3.79999995;stroke-dasharray:none;stroke-opacity:1"
   d="m 46.3,496.3 5.9,10.65 5.9,-10.65" /><text
   xml:space="preserve"
   style="font-style:normal;font-weight:normal;line-height:0%;font-family:sans-serif;letter-spacing:0px;word-spacing:0px;fill:#000000;fill-opacity:1;stroke:none;stroke-width:1px;stroke-linecap:butt;stroke-linejoin:miter;stroke-opacity:1"
   x="304.88678"
   y="-6.0118408"
   id="text4210"
   transform="scale(1,-1)"><tspan
     sodipodi:role="line"
     id="tspan4212"
     x="304.88678"
     y="-6.0118408"
     style="font-size:32px;line-height:1.25">time</tspan></text>

<text
   transform="scale(1,-1)"
   id="text4218"
   y="-560.81989"
   x="-4.2941628"
   style="font-style:normal;font-weight:normal;line-height:0%;font-family:sans-serif;letter-spacing:0px;word-spacing:0px;fill:#000000;fill-opacity:1;stroke:none;stroke-width:1px;stroke-linecap:butt;stroke-linejoin:miter;stroke-opacity:1"
   xml:space="preserve"><tspan
     y="-560.81989"
     x="-4.2941628"
     id="tspan4220"
     sodipodi:role="line"
     style="font-size:32px;line-height:1.25">development</tspan><tspan
     y="-520.81989"
     x="-4.2941628"
     sodipodi:role="line"
     id="tspan4222"
     style="font-size:32px;line-height:1.25">speed</tspan></text>

<text
   xml:space="preserve"
   style="font-style:normal;font-weight:normal;line-height:0%;font-family:sans-serif;letter-spacing:0px;word-spacing:0px;fill:#ff0000;fill-opacity:1;stroke:none;stroke-width:1px;stroke-linecap:butt;stroke-linejoin:miter;stroke-opacity:1;"
   x="301.28564"
   y="-140.28586"
   id="text4224"
   transform="scale(1,-1)"><tspan
     sodipodi:role="line"
     x="301.28564"
     y="-140.28586"
     style="font-size:32px;line-height:1.25;fill:#ff0000;"
     id="tspan4535">quick hacks</tspan></text>

<text
   transform="scale(1,-1)"
   id="text4232"
   y="-405.44986"
   x="300.90176"
   style="font-style:normal;font-weight:normal;line-height:0%;font-family:sans-serif;letter-spacing:0px;word-spacing:0px;fill:#0000ff;fill-opacity:1;stroke:none;stroke-width:1px;stroke-linecap:butt;stroke-linejoin:miter;stroke-opacity:1;"
   xml:space="preserve"><tspan
     y="-405.44986"
     x="300.90176"
     sodipodi:role="line"
     style="font-size:32px;line-height:1.25;fill:#0000ff;"
     id="tspan4533">properly implemented</tspan></text>

<rect
   style="fill:#ffffff;stroke-width:3.54330707;stroke-miterlimit:4;stroke-dasharray:none"
   id="rect4236"
   width="55.824333"
   height="47.235977"
   x="644.12695"
   y="-511.86621"
   transform="scale(1,-1)" /></g></svg>