<svg xmlns="http://www.w3.org/2000/svg" xmlns:xlink="http://www.w3.org/1999/xlink" width="1458" height="624.929" viewBox="0 0 1458 624.929">
  <defs>
    <style>
      .cls-1 {
        fill: none;
      }

      .cls-2 {
        clip-path: url(#clip-path);
      }

      .cls-3 {
        fill: #00467d;
      }

      .cls-4 {
        fill: #1d274d;
      }

      .cls-5 {
        fill: #330837;
      }

      .cls-6 {
        fill: #ffb213;
      }

      .cls-7 {
        fill: #009ede;
      }

      .cls-8 {
        fill: #009ddd;
      }

      .cls-9 {
        fill: #235ead;
      }

      .cls-10 {
        fill: #fff;
      }
    </style>
    <clipPath id="clip-path">
      <path id="Rectangle_51" data-name="Rectangle 51" class="cls-1" d="M120,0H1458a0,0,0,0,1,0,0V624.929a0,0,0,0,1,0,0H0a0,0,0,0,1,0,0V120A120,120,0,0,1,120,0Z"/>
    </clipPath>
  </defs>
  <g id="Group_53" data-name="Group 53" transform="translate(-197.796 -4197.282)">
    <g id="Group_52" data-name="Group 52" class="cls-2" transform="translate(197.796 4197.282)">
      <g id="Group_51" data-name="Group 51" transform="translate(-1530.218 -2111.504)">
        <g id="Group_50" data-name="Group 50" transform="translate(0)">
          <rect id="Rectangle_39" data-name="Rectangle 39" class="cls-3" width="697.354" height="3626.775" transform="translate(6973.541 1.737)"/>
          <rect id="Rectangle_40" data-name="Rectangle 40" class="cls-4" width="697.354" height="3628.511" transform="translate(6276.187)"/>
          <rect id="Rectangle_41" data-name="Rectangle 41" class="cls-3" width="697.354" height="3628.511" transform="translate(697.355)"/>
          <rect id="Rectangle_42" data-name="Rectangle 42" class="cls-5" width="697.354" height="3628.511" transform="translate(2092.063)"/>
          <rect id="Rectangle_43" data-name="Rectangle 43" class="cls-6" width="697.354" height="3628.511" transform="translate(2789.417)"/>
          <rect id="Rectangle_44" data-name="Rectangle 44" class="cls-4" width="697.354" height="3628.511" transform="translate(3486.771)"/>
          <rect id="Rectangle_45" data-name="Rectangle 45" class="cls-7" width="697.354" height="3628.511" transform="translate(4184.125)"/>
          <rect id="Rectangle_46" data-name="Rectangle 46" class="cls-7" width="697.354" height="3628.511" transform="translate(5578.833)"/>
          <rect id="Rectangle_47" data-name="Rectangle 47" class="cls-7" width="697.354" height="3628.511" transform="translate(0.001)"/>
          <path id="Path_44" data-name="Path 44" class="cls-8" d="M735.091,5714.421h697.355v-930.26c0-323.874-312.216-586.425-697.354-586.425h0c-385.138,0-697.353,262.552-697.353,586.425v930.26Z" transform="translate(1356.971 -2085.909)"/>
          <rect id="Rectangle_48" data-name="Rectangle 48" class="cls-3" width="697.354" height="944.974" transform="translate(4881.479)"/>
          <path id="Path_45" data-name="Path 45" class="cls-8" d="M37.737,1901.779V4057.446c0,147.134,156.108,266.407,348.677,266.407h0c192.569,0,348.678-119.274,348.678-266.407V1901.779c0-147.132-156.109-266.407-348.678-266.407h0C193.845,1635.372,37.737,1754.647,37.737,1901.779Z" transform="translate(1356.971 -1347.821)"/>
          <path id="Path_46" data-name="Path 46" class="cls-3" d="M1558.781,1231.479h697.354V3279.8H1889.677c-182.748,0-330.9-124.581-330.9-278.26V2533.9c0-153.679-148.147-278.261-330.9-278.261h-35.562c-182.749,0-330.9-124.581-330.9-278.26v-745.9Z" transform="translate(1230.635 -1231.479)"/>
          <g id="Group_39" data-name="Group 39" transform="translate(3486.771)">
            <path id="Path_47" data-name="Path 47" class="cls-9" d="M2508.809,1231.479h0v1287.26h0c385.137,0,697.352-262.552,697.352-586.426V1231.479Z" transform="translate(-2508.808 -1231.479)"/>
          </g>
          <g id="Group_40" data-name="Group 40" transform="translate(697.355)">
            <path id="Path_48" data-name="Path 48" class="cls-9" d="M-785.951,1231.479V3379.9h0c385.138,0,697.353-262.552,697.353-586.425V1231.479Z" transform="translate(785.952 -1231.479)"/>
          </g>
          <g id="Group_41" data-name="Group 41" transform="translate(3486.77 2341.252)">
            <path id="Path_49" data-name="Path 49" class="cls-9" d="M3206.16,5807.244h0V4519.985h0c-385.138,0-697.353,262.552-697.353,586.425v700.834Z" transform="translate(-2508.807 -4519.985)"/>
          </g>
          <path id="Path_50" data-name="Path 50" class="cls-4" d="M-912.289,6142.45V5976.9c0-161.937-156.106-293.213-348.676-293.213s-348.676,131.276-348.676,293.213V6142.45Z" transform="translate(1609.643 -2513.938)"/>
          <path id="Path_51" data-name="Path 51" class="cls-7" d="M1685.118,1231.479v165.547c0,161.937,156.106,293.212,348.677,293.212s348.677-131.276,348.677-293.212V1231.479Z" transform="translate(1104.299 -1231.479)"/>
          <path id="Path_52" data-name="Path 52" class="cls-4" d="M4853.541,5130.869H4156.187v-2959h458.152c132.108,0,239.2,90.059,239.2,201.153Z" transform="translate(725.292 -1502.357)"/>
          <path id="Path_53" data-name="Path 53" class="cls-3" d="M5677.231,5328.227H4979.877V2857.015h457.639c132.391,0,239.715,90.538,239.715,202.22Z" transform="translate(598.956 -1699.714)"/>
          <path id="Path_54" data-name="Path 54" class="cls-3" d="M4029.851,5628.31V4099.946c0-111.093-107.093-201.152-239.2-201.152H3571.7c-132.107,0-239.2,90.059-239.2,201.152V5628.31Z" transform="translate(851.628 -1999.799)"/>
          <path id="Path_55" data-name="Path 55" class="cls-4" d="M6975.935,5182.185h0c-192.569,0-348.678,131.464-348.678,293.633v523.341h697.354V5475.818C7324.611,5313.649,7168.5,5182.185,6975.935,5182.185Z" transform="translate(346.284 -2369.479)"/>
          <path id="Path_56" data-name="Path 56" class="cls-7" d="M4029.851,5938.949V4977.213h0c-385.138,0-697.353,262.552-697.353,586.425v375.311Z" transform="translate(851.628 -2310.438)"/>
          <path id="Path_57" data-name="Path 57" class="cls-9" d="M4504.865,3000.479h0c-192.569,0-348.678,131.276-348.678,293.212V5369.551h697.354V3293.691C4853.541,3131.755,4697.434,3000.479,4504.865,3000.479Z" transform="translate(725.292 -1741.039)"/>
          <rect id="Rectangle_49" data-name="Rectangle 49" class="cls-3" width="697.354" height="1351.747" rx="33.028" transform="translate(0 481.427)"/>
          <path id="Path_58" data-name="Path 58" class="cls-7" d="M-1609.643,1231.569v728.348c0,161.937,156.108,293.213,348.676,293.213h0c192.568,0,348.676-131.276,348.676-293.213V1231.479Z" transform="translate(1609.643 -1231.479)"/>
          <path id="Path_59" data-name="Path 59" class="cls-4" d="M-419.494,1522.48c182.748,0,330.9,124.581,330.9,278.26v-46.652c.01,161.93,156.114,293.2,348.676,293.2s348.678-131.276,348.678-293.212V1231.479H-785.953v291Z" transform="translate(1483.307 -1231.479)"/>
          <path id="Path_60" data-name="Path 60" class="cls-7" d="M6627.257,1231.479h697.354v961.736H6866.458c-132.107,0-239.2-90.059-239.2-201.152Z" transform="translate(346.284 -1231.479)"/>
          <g id="Group_42" data-name="Group 42" transform="translate(654.414 989.247)">
            <path id="Path_61" data-name="Path 61" class="cls-10" d="M-316.554,3007.481q47.587-50.053,122.383-80.55c29.6-12.106,62.5-20.207,97.792-25.267v-280.7c-90.355,5.742-172.437,21.324-245.563,47.336q-141.281,49.959-239.757,133.41-129.156,105.693-192.017,254.5-63.013,148.76-62.957,323.872,0,178.047,69.673,325.394,69.731,147.5,202.378,253.039,105.307,80.642,239.605,129.251,100.7,36.41,228.638,45.6V3851.711c-25.046-4.439-48.081-11.02-68.838-19.773-42.047-17.6-78.781-38.366-110.505-62.515q-64.549-50.053-96.844-125.154-32.274-74.962-32.294-158.522H-96.378v-253.07h-311.9q3.415-72.168,23.793-125.092Q-364.1,3054.832-316.554,3007.481Z" transform="translate(836.672 -2620.969)"/>
          </g>
          <g id="Group_43" data-name="Group 43" transform="translate(6276.186 103.667)">
            <path id="Path_62" data-name="Path 62" class="cls-10" d="M5941.367,1619q-29.782-31.325-76.6-50.413c-18.525-7.577-39.117-12.647-61.206-15.814v-175.68c56.55,3.595,107.923,13.347,153.691,29.627q88.424,31.268,150.057,83.5,80.837,66.15,120.179,159.283,39.437,93.1,39.4,202.7,0,111.434-43.606,203.655-43.643,92.318-126.663,158.371-65.908,50.472-149.962,80.895-63.022,22.788-143.1,28.539V2147.377A201.235,201.235,0,0,0,5846.65,2135c26.315-11.015,49.306-24.013,69.162-39.127a194.338,194.338,0,0,0,60.611-78.33,248.347,248.347,0,0,0,20.212-99.214H5803.566v-158.39h195.208q-2.139-45.169-14.892-78.292Q5971.127,1648.632,5941.367,1619Z" transform="translate(-5803.566 -1377.089)"/>
          </g>
          <g id="Group_44" data-name="Group 44" transform="translate(5335.472 2355.163)">
            <path id="Path_63" data-name="Path 63" class="cls-10" d="M4863.409,4666.584q15.643-16.455,40.231-26.479a135.961,135.961,0,0,1,32.148-8.307v-92.274c-29.7,1.887-56.687,7.01-80.726,15.561q-46.444,16.423-78.816,43.857-42.458,34.744-63.123,83.662-20.714,48.9-20.7,106.468,0,58.531,22.9,106.969,22.924,48.489,66.529,83.183,34.617,26.509,78.767,42.489,33.1,11.969,75.162,14.99v-92.591a105.608,105.608,0,0,1-22.63-6.5,164.238,164.238,0,0,1-36.326-20.55A102.069,102.069,0,0,1,4845,4875.919a130.445,130.445,0,0,1-10.615-52.112h101.408v-83.194H4833.257q1.124-23.724,7.821-41.122Q4847.778,4682.15,4863.409,4666.584Z" transform="translate(-4692.428 -4539.524)"/>
          </g>
          <g id="Group_45" data-name="Group 45" transform="translate(5335.472 1699.635)">
            <path id="Path_64" data-name="Path 64" class="cls-7" d="M4863.409,3745.835q15.643-16.454,40.231-26.479a135.961,135.961,0,0,1,32.148-8.306v-92.275c-29.7,1.888-56.687,7.011-80.726,15.562q-46.444,16.423-78.816,43.856-42.458,34.745-63.123,83.663-20.714,48.9-20.7,106.469,0,58.53,22.9,106.968,22.924,48.489,66.529,83.183,34.617,26.509,78.767,42.489,33.1,11.969,75.162,14.989v-92.59a105.664,105.664,0,0,1-22.63-6.5,164.259,164.259,0,0,1-36.326-20.551A102.062,102.062,0,0,1,4845,3955.17a130.439,130.439,0,0,1-10.615-52.112h101.408v-83.192H4833.257q1.124-23.725,7.821-41.123Q4847.778,3761.4,4863.409,3745.835Z" transform="translate(-4692.428 -3618.775)"/>
          </g>
          <g id="Group_46" data-name="Group 46" transform="translate(1460.513 2006.575)">
            <path id="Path_65" data-name="Path 65" class="cls-5" d="M253.264,4291.808q-29.784-31.327-76.6-50.414c-18.525-7.577-39.117-12.647-61.2-15.813V4049.9c56.55,3.594,107.923,13.346,153.691,29.626q88.424,31.268,150.057,83.5,80.836,66.149,120.179,159.283,39.438,93.1,39.4,202.7,0,111.435-43.607,203.655-43.641,92.318-126.662,158.371-65.908,50.471-149.962,80.895-63.023,22.788-143.1,28.538V4820.188a201.216,201.216,0,0,0,43.084-12.375c26.316-11.016,49.306-24.013,69.162-39.126a194.334,194.334,0,0,0,60.611-78.331,248.363,248.363,0,0,0,20.212-99.215H115.463v-158.39H310.669q-2.137-45.168-14.891-78.291Q283.024,4321.443,253.264,4291.808Z" transform="translate(-115.463 -4049.9)"/>
          </g>
          <g id="Group_47" data-name="Group 47" transform="translate(6973.541 3211.605)">
            <path id="Path_66" data-name="Path 66" class="cls-10" d="M6677.5,5830.676q-10.86-11.421-27.926-18.38a94.438,94.438,0,0,0-22.317-5.766v-64.053c20.619,1.311,39.349,4.866,56.037,10.8q32.239,11.4,54.71,30.444a149.1,149.1,0,0,1,43.818,58.075q14.38,33.946,14.366,73.907,0,40.628-15.9,74.253a161.124,161.124,0,0,1-46.183,57.742,202.361,202.361,0,0,1-54.676,29.495q-22.978,8.309-52.174,10.405v-64.273a73.274,73.274,0,0,0,15.708-4.512,114.041,114.041,0,0,0,25.216-14.265,70.851,70.851,0,0,0,22.1-28.56,90.547,90.547,0,0,0,7.37-36.174h-70.394v-57.749h71.173q-.779-16.469-5.43-28.546Q6688.35,5841.481,6677.5,5830.676Z" transform="translate(-6627.257 -5742.476)"/>
          </g>
          <path id="Path_67" data-name="Path 67" class="cls-10" d="M3204.405,6011.291v-198.7H2906.516q3.261-68.928,22.725-119.474,19.462-50.384,64.876-95.609,45.451-47.8,116.887-76.932c28.27-11.562,59.693-19.3,93.4-24.132v-268.09c-86.3,5.485-164.692,20.367-234.536,45.21q-134.935,47.717-228.987,127.419-123.357,100.944-183.4,243.068-60.183,142.079-60.128,309.327c0,19.611.765,38.888,2.113,57.909Z" transform="translate(979.719 -2382.779)"/>
          <path id="Path_68" data-name="Path 68" class="cls-3" d="M2382.471,6142.45V5976.9c0-161.937-156.106-293.213-348.677-293.213s-348.677,131.276-348.677,293.213V6142.45Z" transform="translate(1104.299 -2513.938)"/>
          <g id="Group_48" data-name="Group 48" transform="translate(3486.771 73.821)">
            <path id="Path_69" data-name="Path 69" class="cls-10" d="M2779.559,1530.2q-10.458-47.546-48.317-93.5-41.828-52.332-107.163-77.49c-36.006-13.811-74.493-21.628-115.27-24.037v107.581c12.193,1.331,23.627,3.407,33.645,6.746q25.4,8.59,42.425,23.554,40.515,36.324,41.855,97.191H2508.808V1667.5h281.207v-37.4A465.331,465.331,0,0,0,2779.559,1530.2Z" transform="translate(-2508.808 -1335.168)"/>
            <path id="Path_70" data-name="Path 70" class="cls-10" d="M2583.594,1946.573a105.279,105.279,0,0,1-41.141,20.854c-9.45,2.417-21.059,3.823-33.645,4.76v107.2A426.262,426.262,0,0,0,2612.323,2062q60.053-18.128,103.239-59.856,19.623-19.189,37.2-48.618,17.632-29.4,20.258-53.928H2616.263Q2607.118,1927.333,2583.594,1946.573Z" transform="translate(-2508.808 -1497.752)"/>
          </g>
          <g id="Group_49" data-name="Group 49" transform="translate(5578.833 2370.323)">
            <path id="Path_71" data-name="Path 71" class="cls-7" d="M5391.723,5484.673Z" transform="translate(-5043.045 -4826.935)"/>
            <path id="Path_72" data-name="Path 72" class="cls-7" d="M6025.909,4560.818h0c-192.568,0-348.676,131.276-348.676,293.213v38.844h-.086c.043,1.913.086,3.827.086,5.749v26.721c0,161.937-156.108,293.212-348.676,293.212h0c-192.568,0-348.676,131.276-348.676,293.213v307.236H6374.585V4854.031C6374.585,4692.094,6218.477,4560.818,6025.909,4560.818Z" transform="translate(-4979.877 -4560.818)"/>
          </g>
        </g>
        <rect id="Rectangle_50" data-name="Rectangle 50" class="cls-1" width="6276.178" height="3417.373" transform="translate(0.009)"/>
      </g>
    </g>
  </g>
</svg>
