<?xml version="1.0" encoding="UTF-8"?>
<svg width="1350px" height="591px" viewBox="0 0 1350 591" version="1.1" xmlns="http://www.w3.org/2000/svg" xmlns:xlink="http://www.w3.org/1999/xlink">
    <!-- Generator: Sketch 63.1 (92452) - https://sketch.com -->
    <title>header</title>
    <desc>Created with Sketch.</desc>
    <defs>
        <rect id="path-1" x="0" y="0" width="1350" height="592"></rect>
        <linearGradient x1="0%" y1="50%" x2="100%" y2="50%" id="linearGradient-3">
            <stop stop-color="#000000" offset="0%"></stop>
            <stop stop-color="#010E14" offset="17%"></stop>
            <stop stop-color="#022639" offset="53%"></stop>
            <stop stop-color="#03354F" offset="82%"></stop>
            <stop stop-color="#033B57" offset="100%"></stop>
        </linearGradient>
    </defs>
    <g id="News" stroke="none" stroke-width="1" fill="none" fill-rule="evenodd">
        <g id="header">
            <g transform="translate(0.000000, -1.000000)">
                <g id="Path-+-Group-+-Group-+-Path-Mask">
                    <rect id="Rectangle" fill="#033B57" x="0" y="0" width="1350" height="592"></rect>
                    <mask id="mask-2" fill="white">
                        <use xlink:href="#path-1"></use>
                    </mask>
                    <g id="Mask"></g>
                    <path d="M1398.25,374.38 L1398.25,645.38 C1395.41577,611.335653 1366.25671,585.572024 1332.1225,586.952728 C1297.9883,588.333431 1271.00533,616.367963 1270.93,650.53 L1270.93,800.31 C1270.88584,835.492163 1242.33217,863.978683 1207.15,863.94 L1015.82,863.94 L1015.82,764 L1015.82,764 L1015.82,856.74 C1015.82,927.02 958.72,984 888.27,984 L888.27,984 C817.83,984 760.72,927 760.72,856.74 L760.72,720.84 L706.23,720.84 C706.436904,712.048243 707.836349,703.325264 710.39,694.91 C712.952324,687.286959 716.985132,680.240587 722.26,674.17 C728.039861,667.066094 735.347957,661.357712 743.64,657.47 C749.057885,654.929091 754.808316,653.168274 760.72,652.24 L760.72,594.06 C744.94,595.25 730.6,598.48 717.82,603.87 C702.183342,610.253913 687.953709,619.648597 675.94,631.52 C660.809129,646.257018 649.321845,664.318247 642.39,684.27 C637.933277,696.876165 634.842247,709.924203 633.17,723.19 L633.17,764 L631.69,775 C625.23136,804.22234 599.317559,825.019933 569.39,825 L569.39,825 C539.46486,825.019011 513.554437,804.22079 507.1,775 L505.62,764 L505.62,562.09 C505.637412,519.52067 484.32597,479.773854 448.86,456.23 C415.81,434.55 378.07,434.84 378.07,434.84 L378.07,434.84 C307.62,434.84 250.52,491.84 250.52,562.09 L250.52,885.36 C250.501445,902.256946 243.771359,918.454464 231.810287,930.389282 C219.849214,942.324099 203.636946,949.018575 186.74,949 L186.74,949 C151.569545,949.016582 123.038639,920.530438 123,885.36 L123,728 C122.562841,693.089497 94.1382402,665.018608 59.225,665.018608 C24.3117598,665.018608 -4.11284104,693.089497 -4.55,728 L-4.55,764 L-4.55,764 L-4.55,374.38 L-11,374.38 L-11,1549.54 L1398.25,1549.54 L1398.25,374.38 Z" id="Path" fill="#033B57" fill-rule="nonzero" mask="url(#mask-2)"></path>
                    <g id="Group" opacity="0.4" style="mix-blend-mode: lighten;" mask="url(#mask-2)" fill-rule="nonzero">
                        <g transform="translate(-5.000000, -446.000000)">
                            <path d="M255.52,1045.4 L255.52,1008.09 C255.52,937.81 312.62,880.84 383.07,880.84 L383.07,880.84 L383.07,550.56 C383.07,514.34 354.51,484.97 319.29,484.97 L319.29,484.97 C284.07,484.97 255.52,514.34 255.52,550.56 L255.52,1081.23 L255.52,1081.23 L255.52,1045.4 Z" id="Path" fill="#169CD8"></path>
                            <polygon id="Path" fill="#FFFFFF" points="1275.93 1209.96 1148.38 1309.96 1148.38 0 1275.93 0"></polygon>
                            <path d="M128,0 L255.52,0 L255.52,1331.29 C255.52,1348.18429 248.808769,1364.38663 236.862702,1376.3327 C224.916635,1388.27877 208.71429,1394.99 191.82,1394.99 L191.67,1394.99 C174.77571,1394.99 158.573365,1388.27877 146.627298,1376.3327 C134.681231,1364.38663 127.97,1348.18429 127.97,1331.29 L127.97,0 L128,0 Z" id="Path" fill="#1D1D1B"></path>
                            <rect id="Rectangle" fill="#169CD8" x="510.62" y="0" width="127.55" height="1209.96"></rect>
                            <polygon id="Path" fill="#FFFFFF" points="765.72 999.96 638.17 1079.96 638.17 0 765.72 0"></polygon>
                            <rect id="Rectangle" fill="#169CD8" x="765.72" y="0" width="127.55" height="1209.96"></rect>
                            <polygon id="Path" fill="#169CD8" points="1148.38 1309.96 1020.82 1209.96 1020.82 0 1148.38 0"></polygon>
                            <rect id="Rectangle" fill="#000000" x="893.27" y="0" width="127.55" height="627.63"></rect>
                            <path d="M510.62,0 L638.17,0 L638.17,867.06003 L571.17,867.06003 C537.786658,867.093159 510.694156,840.063329 510.65,806.68 L510.65,705.2 C510.631447,689.165925 504.243451,673.796083 492.891584,662.472346 C481.539716,651.14861 466.154072,644.79877 450.12,644.82 L443.62,644.82 C427.585929,644.838575 412.20134,638.48619 400.851348,627.160579 C389.501357,615.834968 383.115904,600.464074 383.1,584.43 L383.1,0 L510.62,0 Z" id="Path" fill="#000000"></path>
                            <path d="M638.17,0 L638.17,0 L638.17,701.91 L638.17,701.91 C708.61,701.91 765.72,644.91 765.72,574.65 L765.72,0 L638.17,0 Z" id="Path" fill="#033B57"></path>
                            <path d="M128,0 L128,888.78 L128,888.78 C198.45,888.78 255.56,831.78 255.56,761.53 L255.56,0 L128,0 Z" id="Path" fill="#033B57"></path>
                            <path d="M0.41,0 L0.41,1210 L0.41,1210 L0.41,1174 C0.41,1138.76699 28.9719944,1110.205 64.205,1110.205 C99.4380056,1110.205 128,1138.76699 128,1174 L128,1210 L128,1210 L128,0 L0.41,0 Z" id="Path" fill="#169CD8"></path>
                            <path d="M510.62,0 L510.62,458.5 C511.057159,493.410503 539.48176,521.481392 574.395,521.481392 C609.30824,521.481392 637.732841,493.410503 638.17,458.5 L638.17,0 L510.62,0 Z" id="Path" fill="#169CD8"></path>
                            <path d="M1020.82,1210 L893.27,1210 L893.27,567.859959 L977.07,567.859959 C988.660773,567.844077 999.782852,572.434597 1007.98815,580.621137 C1016.19344,588.807676 1020.8094,599.919221 1020.82,611.51 L1020.82,1210 Z" id="Path" fill="#FFFFFF"></path>
                            <path d="M1148.37,1310 L1020.82,1210 L1020.82,673.71 L1104.53,673.71 C1116.1624,673.71 1127.31625,678.341341 1135.53785,686.570437 C1143.75944,694.799534 1148.37531,705.957604 1148.37,717.59 L1148.37,1310 Z" id="Path" fill="#000000"></path>
                            <path d="M893.27,1210 L893.27,878.3 C893.236884,854.167443 873.652569,834.627893 849.52,834.649981 L809.52,834.649981 C785.387431,834.627893 765.803116,854.167443 765.77,878.3 L765.77,1210 L893.27,1210 Z" id="Path" fill="#000000"></path>
                            <path d="M1275.93,0.38 L1275.93,1096.55 C1276.36716,1061.6395 1304.79176,1033.56861 1339.705,1033.56861 C1374.61824,1033.56861 1403.04284,1061.6395 1403.48,1096.55 L1403.48,1210 L1403.48,1210 L1403.48,0.38 L1275.93,0.38 Z" id="Path" fill="#000000"></path>
                            <path d="M893.27,1430 L893.27,1001.3 L893.27,1001.3 C822.83,1001.3 765.72,1058.3 765.72,1128.56 L765.72,1302.7 C765.72,1372.98 822.83,1429.96 893.27,1429.96 L893.27,1430 Z" id="Path" fill="#169CD8"></path>
                            <path d="M957.05,695.869961 L957.05,695.869961 C921.86783,695.831317 893.314157,724.317837 893.27,759.5 L893.27,1430 L893.27,1430 C963.72,1430 1020.82,1373 1020.82,1302.74 L1020.82,759.5 C1020.80145,742.605706 1014.07241,726.410731 1002.11322,714.477789 C990.154019,702.544847 973.944294,695.851425 957.05,695.869961 Z" id="Path" fill="#033B57"></path>
                            <rect id="Rectangle" fill="#1D1D1B" x="0.41" y="527.04" width="127.55" height="293.33" rx="63.7"></rect>
                            <path d="M0.41,0 L0.41,580.64 C0.428553738,597.536028 7.15895905,613.73252 19.1203197,625.66575 C31.0816803,637.598979 47.2939749,644.29123 64.19,644.270113 L64.19,644.270113 C81.0920286,644.301853 97.3135755,637.613976 109.282005,625.679309 C121.250434,613.744641 127.984107,597.542051 128,580.64 L128,0 L0.41,0 Z" id="Path" fill="#169CD8"></path>
                            <path d="M195,485.72 C228.387245,485.681315 255.485845,512.712762 255.53,546.1 L255.53,536 C255.967159,570.910503 284.39176,598.981392 319.305,598.981392 C354.21824,598.981392 382.642841,570.910503 383.08,536 L383.08,0 L128,0 L128,485.72 L195,485.72 Z" id="Path" fill="#FFFFFF"></path>
                            <path d="M1275.93,0 L1148.37,0 L1148.37,624.44 C1148.37,694.72 1205.48,751.69 1275.93,751.69 L1275.93,751.69 C1346.37,751.69 1403.48,694.69 1403.48,624.44 L1403.48,0 L1275.93,0 Z" id="Path" fill="#033B57"></path>
                            <path d="M1275.93,0 L1403.48,0 L1403.48,631.270041 L1319.68,631.270041 C1308.08923,631.285923 1296.96715,626.695403 1288.76185,618.508863 C1280.55656,610.322324 1275.9406,599.210779 1275.93,587.62 L1275.93,0 Z" id="Path" fill="#169CD8"></path>
                            <path d="M215.24,721.11 C221.29735,713.67729 228.949731,707.703032 237.63,703.63 C243.30561,700.970221 249.328418,699.125337 255.52,698.15 L255.52,637.24 C239,638.49 224,641.87 210.6,647.51 C194.222209,654.206033 179.322401,664.059954 166.75,676.51 C150.904418,691.935759 138.878654,710.847573 131.63,731.74 C123.943333,753.246667 120.103333,776.666667 120.109991,802 C120.109991,827.76 124.356667,851.296667 132.85,872.61 C140.992357,893.413071 153.626232,912.162425 169.85,927.52 C182.791393,939.238708 197.606993,948.703385 213.68,955.52 C225.953333,960.786667 239.893333,964.086667 255.5,965.42 L255.5,904.31 C251.13293,903.428018 246.89795,901.986108 242.9,900.02 C235.572652,896.445318 228.772174,891.879138 222.69,886.45 C214.66569,878.979548 208.592243,869.658233 205,859.3 C201.029605,848.268196 199.02917,836.624377 199.09,824.9 L255.52,824.9 L255.52,770 L198.52,770 C198.729971,760.797694 200.193445,751.666962 202.87,742.86 C205.530747,734.87057 209.733491,727.480943 215.24,721.11 L215.24,721.11 Z" id="Path" fill="#FFFFFF"></path>
                            <path d="M1173.58,497.56 C1169.79105,492.911374 1165.00672,489.172765 1159.58,486.62 C1156.02611,484.956777 1152.25579,483.802114 1148.38,483.19 L1148.38,445.07 C1158.03965,445.676682 1167.53663,447.84829 1176.5,451.5 C1186.74853,455.678134 1196.07293,461.835505 1203.94,469.62 C1213.86566,479.268718 1221.39929,491.103363 1225.94,504.18 C1230.86108,518.321558 1233.30033,533.207422 1233.15,548.18 C1233.15,564.3 1230.48333,579.03 1225.15,592.37 C1220.05259,605.385641 1212.14833,617.117406 1202,626.73 C1193.89938,634.068788 1184.62808,640.000662 1174.57,644.28 C1166.23255,647.736409 1157.39254,649.826541 1148.39,650.47 L1148.39,612.22 C1151.1243,611.669672 1153.77619,610.768905 1156.28,609.54 C1160.86467,607.301102 1165.12093,604.444531 1168.93,601.05 C1173.95448,596.371755 1177.75836,590.535486 1180.01,584.05 C1182.49309,577.144978 1183.74541,569.857834 1183.71,562.52 L1148.39,562.52 L1148.39,528.15 L1184.1,528.15 C1183.96804,522.386243 1183.05299,516.667192 1181.38,511.15 C1179.69206,506.154261 1177.04221,501.537395 1173.58,497.56 L1173.58,497.56 Z" id="Path" fill="#000000"></path>
                            <path d="M1007.58,961.21 C1009.57169,958.768785 1012.08715,956.807001 1014.94,955.47 C1016.80398,954.592259 1018.78409,953.986101 1020.82,953.67 L1020.82,933.67 C1015.74904,933.987284 1010.76369,935.128916 1006.06,937.05 C1000.67395,939.243979 995.773707,942.479091 991.64,946.57 C986.430973,951.637617 982.479102,957.853081 980.1,964.72 C977.513592,972.143721 976.231341,979.959023 976.31,987.82 C976.224097,995.74246 977.646037,1003.60895 980.5,1011 C983.188177,1017.81955 987.342932,1023.96463 992.67,1029 C996.924693,1032.85655 1001.79545,1035.97302 1007.08,1038.22 C1011.45659,1040.03158 1016.0956,1041.12887 1020.82,1041.47 L1020.82,1021.38 C1019.38661,1021.08446 1017.99581,1020.61078 1016.68,1019.97 C1014.27544,1018.78997 1012.0418,1017.28967 1010.04,1015.51 C1007.39732,1013.05541 1005.39866,1009.98874 1004.22,1006.58 C1002.91356,1002.95334 1002.25684,999.124725 1002.28,995.27 L1020.82,995.27 L1020.82,977.28 L1002.07,977.28 C1002.14429,974.255974 1002.62528,971.255706 1003.5,968.36 C1004.38561,965.735599 1005.77112,963.307558 1007.58,961.21 L1007.58,961.21 Z" id="Path" fill="#FFFFFF"></path>
                            <path d="M1007.58,819 C1009.57181,816.556381 1012.08705,814.59135 1014.94,813.25 C1016.80568,812.37669 1018.78516,811.770729 1020.82,811.45 L1020.82,791.45 C1015.74904,791.767284 1010.76369,792.908916 1006.06,794.83 C1000.67591,797.027693 995.776353,800.262352 991.64,804.35 C986.430973,809.417617 982.479102,815.633081 980.1,822.5 C977.512649,829.926937 976.230387,837.745686 976.31,845.61 C976.219795,853.542571 977.641817,861.419689 980.5,868.82 C983.186141,875.640625 987.341178,881.786121 992.67,886.82 C996.924693,890.676552 1001.79545,893.793023 1007.08,896.04 C1011.45659,897.851581 1016.0956,898.948873 1020.82,899.29 L1020.82,879.19 C1019.38661,878.894462 1017.99581,878.420785 1016.68,877.78 C1014.27544,876.599973 1012.0418,875.099666 1010.04,873.32 C1007.39732,870.865413 1005.39866,867.79874 1004.22,864.39 C1002.91275,860.763555 1002.256,856.934794 1002.28,853.08 L1020.82,853.08 L1020.82,835 L1002.07,835 C1002.14429,831.975974 1002.62528,828.975706 1003.5,826.08 C1004.39078,823.479009 1005.77622,821.074859 1007.58,819 Z" id="Path" fill="#169CD8"></path>
                            <path d="M765.72,930.62 C695.28,930.62 638.17,987.62 638.17,1057.88 L638.17,1169.19 C639.842247,1155.9242 642.933277,1142.87617 647.39,1130.27 C654.321845,1110.31825 665.809129,1092.25702 680.94,1077.52 C692.953709,1065.6486 707.183342,1056.25391 722.82,1049.87 C735.6,1044.48 749.94,1041.25 765.72,1040.06 L765.72,930.62 L765.72,930.62 Z" id="Path" fill="#033B57"></path>
                            <path d="M687.69,480.91 C686.225388,473.59321 683.211163,466.674813 678.85,460.62 C674.028441,453.28413 667.234837,447.457574 659.25,443.81 C652.593969,440.817788 645.453193,439.049531 638.17,438.59 L638.17,461.94 C640.27151,462.176107 642.336604,462.666357 644.32,463.4 C647.242098,464.529251 649.888201,466.271724 652.08,468.51 C657.02,473.77 659.573333,480.8 659.74,489.6 L638.17,489.6 L638.17,510.71 L689.6,510.71 L689.6,502.59 C689.624721,495.320254 688.985398,488.063444 687.69,480.91 Z" id="Path" fill="#FFFFFF"></path>
                            <path d="M651.85,536 C649.745102,538.096831 647.160345,539.648372 644.32,540.52 C642.30821,541.05634 640.248077,541.391321 638.17,541.52 L638.17,564.78 C644.629383,564.440375 651.005545,563.167163 657.1,561 C664.419739,558.382539 670.930549,553.901834 675.99,548 C678.673223,544.769985 680.956429,541.227658 682.79,537.45 C684.748643,533.813259 686.007107,529.841125 686.5,525.74 L657.82,525.74 C656.800545,529.639468 654.736417,533.186863 651.85,536 Z" id="Path" fill="#FFFFFF"></path>
                            <path d="M1212.15,936.929961 L1212.15,936.929961 C1176.96783,936.891317 1148.41416,965.377837 1148.37,1000.56 L1148.37,1009 L1148.37,1009 C1148.37,1009.41 1148.37,1009.83 1148.37,1010.25 L1148.37,1016 C1148.35145,1032.89429 1141.62241,1049.08927 1129.66322,1061.02221 C1117.70402,1072.95515 1101.49429,1079.64858 1084.6,1079.63 L1084.6,1079.63 C1049.41783,1079.59132 1020.86416,1108.07784 1020.82,1143.26 L1020.82,1310.00004 L1212.15,1310.00004 C1247.33217,1310.03868 1275.88584,1281.55216 1275.93,1246.37 L1275.93,1000.56 C1275.88584,965.377837 1247.33217,936.891317 1212.15,936.929961 Z" id="Path" fill="#169CD8"></path>
                            <path d="M383.07,0 L383.07,880.84 L383.07,880.84 C453.51,880.84 510.62,937.84 510.62,1008.09 L510.62,0 L383.07,0 Z" id="Path" fill="#033B57"></path>
                        </g>
                    </g>
                    <g id="Group" opacity="0.4" style="mix-blend-mode: lighten;" mask="url(#mask-2)" fill-rule="nonzero">
                        <g transform="translate(-5.000000, -446.000000)">
                            <path d="M255.52,1045.4 L255.52,1008.09 C255.52,937.81 312.62,880.84 383.07,880.84 L383.07,880.84 L383.07,550.56 C383.07,514.34 354.51,484.97 319.29,484.97 L319.29,484.97 C284.07,484.97 255.52,514.34 255.52,550.56 L255.52,1081.23 L255.52,1081.23 L255.52,1045.4 Z" id="Path" fill="#169CD8"></path>
                            <polygon id="Path" fill="#FFFFFF" points="1275.93 1209.96 1148.38 1309.96 1148.38 0 1275.93 0"></polygon>
                            <path d="M128,0 L255.52,0 L255.52,1331.29 C255.52,1348.18429 248.808769,1364.38663 236.862702,1376.3327 C224.916635,1388.27877 208.71429,1394.99 191.82,1394.99 L191.67,1394.99 C174.77571,1394.99 158.573365,1388.27877 146.627298,1376.3327 C134.681231,1364.38663 127.97,1348.18429 127.97,1331.29 L127.97,0 L128,0 Z" id="Path" fill="#1D1D1B"></path>
                            <rect id="Rectangle" fill="#169CD8" x="510.62" y="0" width="127.55" height="1209.96"></rect>
                            <polygon id="Path" fill="#FFFFFF" points="765.72 999.96 638.17 1079.96 638.17 0 765.72 0"></polygon>
                            <rect id="Rectangle" fill="#169CD8" x="765.72" y="0" width="127.55" height="1209.96"></rect>
                            <polygon id="Path" fill="#169CD8" points="1148.38 1309.96 1020.82 1209.96 1020.82 0 1148.38 0"></polygon>
                            <rect id="Rectangle" fill="#000000" x="893.27" y="0" width="127.55" height="627.63"></rect>
                            <path d="M510.62,0 L638.17,0 L638.17,867.06003 L571.17,867.06003 C537.786658,867.093159 510.694156,840.063329 510.65,806.68 L510.65,705.2 C510.631447,689.165925 504.243451,673.796083 492.891584,662.472346 C481.539716,651.14861 466.154072,644.79877 450.12,644.82 L443.62,644.82 C427.585929,644.838575 412.20134,638.48619 400.851348,627.160579 C389.501357,615.834968 383.115904,600.464074 383.1,584.43 L383.1,0 L510.62,0 Z" id="Path" fill="#000000"></path>
                            <path d="M638.17,0 L638.17,0 L638.17,701.91 L638.17,701.91 C708.61,701.91 765.72,644.91 765.72,574.65 L765.72,0 L638.17,0 Z" id="Path" fill="#033B57"></path>
                            <path d="M128,0 L128,888.78 L128,888.78 C198.45,888.78 255.56,831.78 255.56,761.53 L255.56,0 L128,0 Z" id="Path" fill="#033B57"></path>
                            <path d="M0.41,0 L0.41,1210 L0.41,1210 L0.41,1174 C0.41,1138.76699 28.9719944,1110.205 64.205,1110.205 C99.4380056,1110.205 128,1138.76699 128,1174 L128,1210 L128,1210 L128,0 L0.41,0 Z" id="Path" fill="#169CD8"></path>
                            <path d="M510.62,0 L510.62,458.5 C511.057159,493.410503 539.48176,521.481392 574.395,521.481392 C609.30824,521.481392 637.732841,493.410503 638.17,458.5 L638.17,0 L510.62,0 Z" id="Path" fill="#169CD8"></path>
                            <path d="M1020.82,1210 L893.27,1210 L893.27,567.859959 L977.07,567.859959 C988.660773,567.844077 999.782852,572.434597 1007.98815,580.621137 C1016.19344,588.807676 1020.8094,599.919221 1020.82,611.51 L1020.82,1210 Z" id="Path" fill="#FFFFFF"></path>
                            <path d="M1148.37,1310 L1020.82,1210 L1020.82,673.71 L1104.53,673.71 C1116.1624,673.71 1127.31625,678.341341 1135.53785,686.570437 C1143.75944,694.799534 1148.37531,705.957604 1148.37,717.59 L1148.37,1310 Z" id="Path" fill="#000000"></path>
                            <path d="M893.27,1210 L893.27,878.3 C893.236884,854.167443 873.652569,834.627893 849.52,834.649981 L809.52,834.649981 C785.387431,834.627893 765.803116,854.167443 765.77,878.3 L765.77,1210 L893.27,1210 Z" id="Path" fill="#000000"></path>
                            <path d="M1275.93,0.38 L1275.93,1096.55 C1276.36716,1061.6395 1304.79176,1033.56861 1339.705,1033.56861 C1374.61824,1033.56861 1403.04284,1061.6395 1403.48,1096.55 L1403.48,1210 L1403.48,1210 L1403.48,0.38 L1275.93,0.38 Z" id="Path" fill="#000000"></path>
                            <path d="M893.27,1430 L893.27,1001.3 L893.27,1001.3 C822.83,1001.3 765.72,1058.3 765.72,1128.56 L765.72,1302.7 C765.72,1372.98 822.83,1429.96 893.27,1429.96 L893.27,1430 Z" id="Path" fill="#169CD8"></path>
                            <path d="M957.05,695.869961 L957.05,695.869961 C921.86783,695.831317 893.314157,724.317837 893.27,759.5 L893.27,1430 L893.27,1430 C963.72,1430 1020.82,1373 1020.82,1302.74 L1020.82,759.5 C1020.80145,742.605706 1014.07241,726.410731 1002.11322,714.477789 C990.154019,702.544847 973.944294,695.851425 957.05,695.869961 Z" id="Path" fill="#033B57"></path>
                            <rect id="Rectangle" fill="#1D1D1B" x="0.41" y="527.04" width="127.55" height="293.33" rx="63.7"></rect>
                            <path d="M0.41,0 L0.41,580.64 C0.428553738,597.536028 7.15895905,613.73252 19.1203197,625.66575 C31.0816803,637.598979 47.2939749,644.29123 64.19,644.270113 L64.19,644.270113 C81.0920286,644.301853 97.3135755,637.613976 109.282005,625.679309 C121.250434,613.744641 127.984107,597.542051 128,580.64 L128,0 L0.41,0 Z" id="Path" fill="#169CD8"></path>
                            <path d="M195,485.72 C228.387245,485.681315 255.485845,512.712762 255.53,546.1 L255.53,536 C255.967159,570.910503 284.39176,598.981392 319.305,598.981392 C354.21824,598.981392 382.642841,570.910503 383.08,536 L383.08,0 L128,0 L128,485.72 L195,485.72 Z" id="Path" fill="#FFFFFF"></path>
                            <path d="M1275.93,0 L1148.37,0 L1148.37,624.44 C1148.37,694.72 1205.48,751.69 1275.93,751.69 L1275.93,751.69 C1346.37,751.69 1403.48,694.69 1403.48,624.44 L1403.48,0 L1275.93,0 Z" id="Path" fill="#033B57"></path>
                            <path d="M1275.93,0 L1403.48,0 L1403.48,631.270041 L1319.68,631.270041 C1308.08923,631.285923 1296.96715,626.695403 1288.76185,618.508863 C1280.55656,610.322324 1275.9406,599.210779 1275.93,587.62 L1275.93,0 Z" id="Path" fill="#169CD8"></path>
                            <path d="M215.24,721.11 C221.29735,713.67729 228.949731,707.703032 237.63,703.63 C243.30561,700.970221 249.328418,699.125337 255.52,698.15 L255.52,637.24 C239,638.49 224,641.87 210.6,647.51 C194.222209,654.206033 179.322401,664.059954 166.75,676.51 C150.904418,691.935759 138.878654,710.847573 131.63,731.74 C123.943333,753.246667 120.103333,776.666667 120.109991,802 C120.109991,827.76 124.356667,851.296667 132.85,872.61 C140.992357,893.413071 153.626232,912.162425 169.85,927.52 C182.791393,939.238708 197.606993,948.703385 213.68,955.52 C225.953333,960.786667 239.893333,964.086667 255.5,965.42 L255.5,904.31 C251.13293,903.428018 246.89795,901.986108 242.9,900.02 C235.572652,896.445318 228.772174,891.879138 222.69,886.45 C214.66569,878.979548 208.592243,869.658233 205,859.3 C201.029605,848.268196 199.02917,836.624377 199.09,824.9 L255.52,824.9 L255.52,770 L198.52,770 C198.729971,760.797694 200.193445,751.666962 202.87,742.86 C205.530747,734.87057 209.733491,727.480943 215.24,721.11 L215.24,721.11 Z" id="Path" fill="#FFFFFF"></path>
                            <path d="M1173.58,497.56 C1169.79105,492.911374 1165.00672,489.172765 1159.58,486.62 C1156.02611,484.956777 1152.25579,483.802114 1148.38,483.19 L1148.38,445.07 C1158.03965,445.676682 1167.53663,447.84829 1176.5,451.5 C1186.74853,455.678134 1196.07293,461.835505 1203.94,469.62 C1213.86566,479.268718 1221.39929,491.103363 1225.94,504.18 C1230.86108,518.321558 1233.30033,533.207422 1233.15,548.18 C1233.15,564.3 1230.48333,579.03 1225.15,592.37 C1220.05259,605.385641 1212.14833,617.117406 1202,626.73 C1193.89938,634.068788 1184.62808,640.000662 1174.57,644.28 C1166.23255,647.736409 1157.39254,649.826541 1148.39,650.47 L1148.39,612.22 C1151.1243,611.669672 1153.77619,610.768905 1156.28,609.54 C1160.86467,607.301102 1165.12093,604.444531 1168.93,601.05 C1173.95448,596.371755 1177.75836,590.535486 1180.01,584.05 C1182.49309,577.144978 1183.74541,569.857834 1183.71,562.52 L1148.39,562.52 L1148.39,528.15 L1184.1,528.15 C1183.96804,522.386243 1183.05299,516.667192 1181.38,511.15 C1179.69206,506.154261 1177.04221,501.537395 1173.58,497.56 L1173.58,497.56 Z" id="Path" fill="#000000"></path>
                            <path d="M1007.58,961.21 C1009.57169,958.768785 1012.08715,956.807001 1014.94,955.47 C1016.80398,954.592259 1018.78409,953.986101 1020.82,953.67 L1020.82,933.67 C1015.74904,933.987284 1010.76369,935.128916 1006.06,937.05 C1000.67395,939.243979 995.773707,942.479091 991.64,946.57 C986.430973,951.637617 982.479102,957.853081 980.1,964.72 C977.513592,972.143721 976.231341,979.959023 976.31,987.82 C976.224097,995.74246 977.646037,1003.60895 980.5,1011 C983.188177,1017.81955 987.342932,1023.96463 992.67,1029 C996.924693,1032.85655 1001.79545,1035.97302 1007.08,1038.22 C1011.45659,1040.03158 1016.0956,1041.12887 1020.82,1041.47 L1020.82,1021.38 C1019.38661,1021.08446 1017.99581,1020.61078 1016.68,1019.97 C1014.27544,1018.78997 1012.0418,1017.28967 1010.04,1015.51 C1007.39732,1013.05541 1005.39866,1009.98874 1004.22,1006.58 C1002.91356,1002.95334 1002.25684,999.124725 1002.28,995.27 L1020.82,995.27 L1020.82,977.28 L1002.07,977.28 C1002.14429,974.255974 1002.62528,971.255706 1003.5,968.36 C1004.38561,965.735599 1005.77112,963.307558 1007.58,961.21 L1007.58,961.21 Z" id="Path" fill="#FFFFFF"></path>
                            <path d="M1007.58,819 C1009.57181,816.556381 1012.08705,814.59135 1014.94,813.25 C1016.80568,812.37669 1018.78516,811.770729 1020.82,811.45 L1020.82,791.45 C1015.74904,791.767284 1010.76369,792.908916 1006.06,794.83 C1000.67591,797.027693 995.776353,800.262352 991.64,804.35 C986.430973,809.417617 982.479102,815.633081 980.1,822.5 C977.512649,829.926937 976.230387,837.745686 976.31,845.61 C976.219795,853.542571 977.641817,861.419689 980.5,868.82 C983.186141,875.640625 987.341178,881.786121 992.67,886.82 C996.924693,890.676552 1001.79545,893.793023 1007.08,896.04 C1011.45659,897.851581 1016.0956,898.948873 1020.82,899.29 L1020.82,879.19 C1019.38661,878.894462 1017.99581,878.420785 1016.68,877.78 C1014.27544,876.599973 1012.0418,875.099666 1010.04,873.32 C1007.39732,870.865413 1005.39866,867.79874 1004.22,864.39 C1002.91275,860.763555 1002.256,856.934794 1002.28,853.08 L1020.82,853.08 L1020.82,835 L1002.07,835 C1002.14429,831.975974 1002.62528,828.975706 1003.5,826.08 C1004.39078,823.479009 1005.77622,821.074859 1007.58,819 Z" id="Path" fill="#169CD8"></path>
                            <path d="M765.72,930.62 C695.28,930.62 638.17,987.62 638.17,1057.88 L638.17,1169.19 C639.842247,1155.9242 642.933277,1142.87617 647.39,1130.27 C654.321845,1110.31825 665.809129,1092.25702 680.94,1077.52 C692.953709,1065.6486 707.183342,1056.25391 722.82,1049.87 C735.6,1044.48 749.94,1041.25 765.72,1040.06 L765.72,930.62 L765.72,930.62 Z" id="Path" fill="#033B57"></path>
                            <path d="M687.69,480.91 C686.225388,473.59321 683.211163,466.674813 678.85,460.62 C674.028441,453.28413 667.234837,447.457574 659.25,443.81 C652.593969,440.817788 645.453193,439.049531 638.17,438.59 L638.17,461.94 C640.27151,462.176107 642.336604,462.666357 644.32,463.4 C647.242098,464.529251 649.888201,466.271724 652.08,468.51 C657.02,473.77 659.573333,480.8 659.74,489.6 L638.17,489.6 L638.17,510.71 L689.6,510.71 L689.6,502.59 C689.624721,495.320254 688.985398,488.063444 687.69,480.91 Z" id="Path" fill="#FFFFFF"></path>
                            <path d="M651.85,536 C649.745102,538.096831 647.160345,539.648372 644.32,540.52 C642.30821,541.05634 640.248077,541.391321 638.17,541.52 L638.17,564.78 C644.629383,564.440375 651.005545,563.167163 657.1,561 C664.419739,558.382539 670.930549,553.901834 675.99,548 C678.673223,544.769985 680.956429,541.227658 682.79,537.45 C684.748643,533.813259 686.007107,529.841125 686.5,525.74 L657.82,525.74 C656.800545,529.639468 654.736417,533.186863 651.85,536 Z" id="Path" fill="#FFFFFF"></path>
                            <path d="M1212.15,936.929961 L1212.15,936.929961 C1176.96783,936.891317 1148.41416,965.377837 1148.37,1000.56 L1148.37,1009 L1148.37,1009 C1148.37,1009.41 1148.37,1009.83 1148.37,1010.25 L1148.37,1016 C1148.35145,1032.89429 1141.62241,1049.08927 1129.66322,1061.02221 C1117.70402,1072.95515 1101.49429,1079.64858 1084.6,1079.63 L1084.6,1079.63 C1049.41783,1079.59132 1020.86416,1108.07784 1020.82,1143.26 L1020.82,1310.00004 L1212.15,1310.00004 C1247.33217,1310.03868 1275.88584,1281.55216 1275.93,1246.37 L1275.93,1000.56 C1275.88584,965.377837 1247.33217,936.891317 1212.15,936.929961 Z" id="Path" fill="#169CD8"></path>
                            <path d="M383.07,0 L383.07,880.84 L383.07,880.84 C453.51,880.84 510.62,937.84 510.62,1008.09 L510.62,0 L383.07,0 Z" id="Path" fill="#033B57"></path>
                        </g>
                    </g>
                    <path d="M-4.59,-446 L-4.59,-446 L-4.59,-446 L-4.59,134.64 L-4.59,134.64 L-4.59,144.64 L-4.59,144.64 L-4.59,310.74 L-4.59,310.74 L-4.59,764 L-4.59,764 L-4.59,728 C-4.59,692.766994 23.9719944,664.205 59.205,664.205 C94.4380056,664.205 123,692.766994 123,728 L123,885.33 C123.022085,920.512157 151.55784,949.016574 186.74,949 L186.74,949 C221.92217,949.038683 250.475843,920.552163 250.52,885.37 L250.52,562.09 C250.52,491.81 307.62,434.84 378.07,434.84 C378.07,434.84 415.81,434.55 448.86,456.23 C484.32597,479.773854 505.637412,519.52067 505.62,562.09 L505.62,764 L507.1,775 C513.554437,804.22079 539.46486,825.019011 569.39,825 L569.39,825 C599.317559,825.019933 625.23136,804.22234 631.69,775 L633.17,764 L633.17,723.23 C634.842247,709.964203 637.933277,696.916165 642.39,684.31 C649.321845,664.358247 660.809129,646.297018 675.94,631.56 C687.953709,619.688597 702.183342,610.293913 717.82,603.91 C730.6,598.52 744.94,595.29 760.72,594.1 L760.72,652.28 C754.808316,653.208274 749.057885,654.969091 743.64,657.51 C735.347957,661.397712 728.039861,667.106094 722.26,674.21 C716.985132,680.280587 712.952324,687.326959 710.39,694.95 C707.836349,703.365264 706.436904,712.088243 706.23,720.88 L760.72,720.88 L760.72,856.7 C760.72,926.98 817.83,983.96 888.27,983.96 L888.27,983.96 C958.72,983.96 1015.82,926.96 1015.82,856.7 L1015.82,764 L1015.82,764 L1015.82,864 L1207.15,864 C1242.33217,864.038683 1270.88584,835.552163 1270.93,800.37 L1270.93,748.42 L1270.93,748.42 L1270.93,673.53 L1270.93,673.53 L1270.93,650.59 C1271.00533,616.427963 1297.9883,588.393431 1332.1225,587.012728 C1366.25671,585.632024 1395.41577,611.395653 1398.25,645.44 L1398.25,-446 L-4.59,-446 Z" id="Path" fill="url(#linearGradient-3)" fill-rule="nonzero" style="mix-blend-mode: hard-light;" mask="url(#mask-2)"></path>
                </g>
            </g>
        </g>
    </g>
</svg>